0, 0, Header, 1, 3, 96
1, 0, Start_track
1, 0, Text_t, "Cicada at Fri Jan 20 03:57:39 2012"
1, 0, End_track
2, 0, Start_track
2, 0, Text_t, "Cicada at Fri Jan 20 03:57:39 2012"
2, 0, Tempo, 500000
2, 0, Program_c, 1, 6
2, 0, Program_c, 2, 41
2, 0, Time_signature, 7, 1, 24, 8
2, 0, Key_signature, 1, "major"
2, 0, Note_on_c, 1, 63, 96
2, 192, Note_off_c, 1, 63, 0
2, 192, Note_on_c, 1, 61, 96
2, 216, Note_off_c, 1, 61, 0
2, 216, Note_on_c, 1, 56, 96
2, 408, Note_off_c, 1, 56, 0
2, 408, Note_on_c, 1, 55, 96
2, 792, Note_off_c, 1, 55, 0
2, 792, Note_on_c, 1, 65, 96
2, 816, Note_off_c, 1, 65, 0
2, 816, Note_on_c, 1, 65, 96
2, 912, Note_off_c, 1, 65, 0
2, 912, Note_on_c, 1, 65, 96
2, 1008, Note_off_c, 1, 65, 0
2, 1008, Note_on_c, 1, 60, 96
2, 1032, Note_off_c, 1, 60, 0
2, 1272, Note_on_c, 1, 55, 96
2, 1656, Note_off_c, 1, 55, 0
2, 1656, Note_on_c, 1, 65, 96
2, 1752, Note_off_c, 1, 65, 0
2, 1752, Note_on_c, 1, 61, 96
2, 1944, Note_off_c, 1, 61, 0
2, 1968, Note_on_c, 1, 67, 96
2, 1992, Note_off_c, 1, 67, 0
2, 1992, Note_on_c, 1, 55, 96
2, 2016, Note_off_c, 1, 55, 0
2, 2016, Note_on_c, 1, 63, 96
2, 2208, Note_off_c, 1, 63, 0
2, 2208, Note_on_c, 1, 61, 96
2, 2232, Note_off_c, 1, 61, 0
2, 2256, Note_on_c, 1, 67, 96
2, 2352, Note_off_c, 1, 67, 0
2, 2352, Note_on_c, 1, 56, 96
2, 2544, Note_off_c, 1, 56, 0
2, 2544, Note_on_c, 1, 65, 96
2, 2640, Note_off_c, 1, 65, 0
2, 2640, Note_on_c, 1, 63, 96
2, 2832, Note_off_c, 1, 63, 0
2, 2832, Note_on_c, 1, 61, 96
2, 2856, Note_off_c, 1, 61, 0
2, 2856, Note_on_c, 1, 63, 96
2, 2952, Note_off_c, 1, 63, 0
2, 2976, Note_on_c, 1, 60, 96
2, 3168, Note_off_c, 1, 60, 0
2, 3168, Note_on_c, 1, 65, 96
2, 3264, Note_off_c, 1, 65, 0
2, 3288, Note_on_c, 1, 56, 96
2, 3312, Note_off_c, 1, 56, 0
2, 3312, Note_on_c, 1, 61, 96
2, 3336, Note_off_c, 1, 61, 0
2, 3360, Note_on_c, 1, 61, 96
2, 3456, Note_off_c, 1, 61, 0
2, 3456, Note_on_c, 1, 65, 96
2, 3552, Note_off_c, 1, 65, 0
2, 3552, Note_on_c, 1, 58, 96
2, 3744, Note_off_c, 1, 58, 0
2, 3744, Note_on_c, 1, 60, 96
2, 3936, Note_off_c, 1, 60, 0
2, 3960, Note_on_c, 1, 60, 96
2, 3984, Note_off_c, 1, 60, 0
2, 3984, Note_on_c, 1, 61, 96
2, 4008, Note_off_c, 1, 61, 0
2, 4008, Note_on_c, 1, 60, 96
2, 4032, Note_off_c, 1, 60, 0
2, 4032, Note_on_c, 1, 55, 96
2, 4128, Note_off_c, 1, 55, 0
2, 4128, Note_on_c, 1, 58, 96
2, 4152, Note_off_c, 1, 58, 0
2, 4152, Note_on_c, 1, 55, 96
2, 4176, Note_off_c, 1, 55, 0
2, 4176, Note_on_c, 1, 60, 96
2, 4368, Note_off_c, 1, 60, 0
2, 4368, Note_on_c, 1, 61, 96
2, 4392, Note_off_c, 1, 61, 0
2, 4392, Note_on_c, 1, 60, 96
2, 4416, Note_off_c, 1, 60, 0
2, 4440, Note_on_c, 1, 60, 96
2, 4632, Note_off_c, 1, 60, 0
2, 4632, Note_on_c, 1, 65, 96
2, 4728, Note_off_c, 1, 65, 0
2, 4752, Note_on_c, 1, 58, 96
2, 4776, Note_off_c, 1, 58, 0
2, 4776, Note_on_c, 1, 65, 96
2, 4872, Note_off_c, 1, 65, 0
2, 4872, Note_on_c, 1, 61, 96
2, 4968, Note_off_c, 1, 61, 0
2, 4968, Note_on_c, 1, 61, 96
2, 4992, Note_off_c, 1, 61, 0
2, 5016, Note_on_c, 1, 60, 96
2, 5208, Note_off_c, 1, 60, 0
2, 5208, Note_on_c, 1, 67, 96
2, 5232, Note_off_c, 1, 67, 0
2, 5232, Note_on_c, 1, 55, 96
2, 5328, Note_off_c, 1, 55, 0
2, 5328, Note_on_c, 1, 58, 96
2, 5520, Note_off_c, 1, 58, 0
2, 5544, Note_on_c, 1, 63, 96
2, 5568, Note_off_c, 1, 63, 0
2, 5568, Note_on_c, 1, 55, 96
2, 5592, Note_off_c, 1, 55, 0
2, 5592, Note_on_c, 1, 56, 96
2, 5784, Note_off_c, 1, 56, 0
2, 6744, Note_on_c, 1, 60, 96
2, 6936, Note_off_c, 1, 60, 0
2, 6936, Note_on_c, 1, 65, 96
2, 7032, Note_off_c, 1, 65, 0
2, 7056, Note_on_c, 1, 55, 96
2, 7080, Note_off_c, 1, 55, 0
2, 7080, Note_on_c, 1, 60, 96
2, 7272, Note_off_c, 1, 60, 0
2, 7272, Note_on_c, 1, 60, 96
2, 7464, Note_off_c, 1, 60, 0
2, 7464, Note_on_c, 1, 55, 96
2, 7488, Note_off_c, 1, 55, 0
2, 7488, Note_on_c, 1, 55, 96
2, 7584, Note_off_c, 1, 55, 0
2, 7584, Note_on_c, 1, 63, 96
2, 7680, Note_off_c, 1, 63, 0
2, 7704, Note_on_c, 1, 61, 96
2, 7728, Note_off_c, 1, 61, 0
2, 7728, Note_on_c, 1, 63, 96
2, 7824, Note_off_c, 1, 63, 0
2, 7824, Note_on_c, 1, 60, 96
2, 7920, Note_off_c, 1, 60, 0
2, 7920, Note_on_c, 1, 55, 96
2, 8016, Note_off_c, 1, 55, 0
2, 8016, Note_on_c, 1, 65, 96
2, 8040, Note_off_c, 1, 65, 0
2, 8040, Note_on_c, 1, 67, 96
2, 8064, Note_off_c, 1, 67, 0
2, 8064, Note_on_c, 1, 60, 96
2, 8256, Note_off_c, 1, 60, 0
2, 8256, Note_on_c, 1, 61, 96
2, 8280, Note_off_c, 1, 61, 0
2, 8280, Note_on_c, 1, 63, 96
2, 8376, Note_off_c, 1, 63, 0
2, 8376, Note_on_c, 1, 61, 96
2, 8472, Note_off_c, 1, 61, 0
2, 8472, Note_on_c, 1, 61, 96
2, 8496, Note_off_c, 1, 61, 0
2, 8496, Note_on_c, 1, 63, 96
2, 8592, Note_off_c, 1, 63, 0
2, 8592, Note_on_c, 1, 60, 96
2, 8784, Note_off_c, 1, 60, 0
2, 8808, Note_on_c, 1, 58, 96
2, 8832, Note_off_c, 1, 58, 0
2, 8832, Note_on_c, 1, 56, 96
2, 9024, Note_off_c, 1, 56, 0
2, 9024, Note_on_c, 1, 61, 96
2, 9048, Note_off_c, 1, 61, 0
2, 9048, Note_on_c, 1, 55, 96
2, 9072, Note_off_c, 1, 55, 0
2, 9072, Note_on_c, 1, 60, 96
2, 9264, Note_off_c, 1, 60, 0
2, 9264, Note_on_c, 1, 61, 96
2, 9288, Note_off_c, 1, 61, 0
2, 9312, Note_on_c, 1, 55, 96
2, 9336, Note_off_c, 1, 55, 0
2, 9360, Note_on_c, 1, 65, 96
2, 9384, Note_off_c, 1, 65, 0
2, 9384, Note_on_c, 1, 67, 96
2, 9480, Note_off_c, 1, 67, 0
2, 9480, Note_on_c, 1, 65, 96
2, 9504, Note_off_c, 1, 65, 0
2, 9528, Note_on_c, 1, 58, 96
2, 9624, Note_off_c, 1, 58, 0
2, 9624, Note_on_c, 1, 61, 96
2, 9648, Note_off_c, 1, 61, 0
2, 9648, Note_on_c, 1, 55, 96
2, 10032, Note_off_c, 1, 55, 0
2, 10056, Note_on_c, 1, 63, 96
2, 10080, Note_off_c, 1, 63, 0
2, 10080, Note_on_c, 1, 65, 96
2, 10176, Note_off_c, 1, 65, 0
2, 10176, Note_on_c, 1, 56, 96
2, 10368, Note_off_c, 1, 56, 0
2, 10392, Note_on_c, 1, 55, 96
2, 10776, Note_off_c, 1, 55, 0
2, 10776, Note_on_c, 1, 65, 96
2, 10872, Note_off_c, 1, 65, 0
2, 10872, Note_on_c, 1, 61, 96
2, 11064, Note_off_c, 1, 61, 0
2, 11064, Note_on_c, 1, 56, 96
2, 11256, Note_off_c, 1, 56, 0
2, 11280, Note_on_c, 1, 61, 96
2, 11304, Note_off_c, 1, 61, 0
2, 11304, Note_on_c, 1, 61, 96
2, 11400, Note_off_c, 1, 61, 0
2, 11400, Note_on_c, 1, 55, 96
2, 11424, Note_off_c, 1, 55, 0
2, 11424, Note_on_c, 1, 55, 96
2, 11520, Note_off_c, 1, 55, 0
2, 11520, Note_on_c, 1, 60, 96
2, 11616, Note_off_c, 1, 60, 0
2, 11640, Note_on_c, 1, 55, 96
2, 11664, Note_off_c, 1, 55, 0
2, 11664, Note_on_c, 1, 60, 96
2, 11688, Note_off_c, 1, 60, 0
2, 11688, Note_on_c, 1, 60, 96
2, 11712, Note_off_c, 1, 60, 0
2, 11712, Note_on_c, 1, 56, 96
2, 11904, Note_off_c, 1, 56, 0
2, 11904, Note_on_c, 1, 61, 96
2, 11928, Note_off_c, 1, 61, 0
2, 11928, Note_on_c, 1, 58, 96
2, 12120, Note_off_c, 1, 58, 0
2, 12120, Note_on_c, 1, 58, 96
2, 12312, Note_off_c, 1, 58, 0
2, 12336, Note_on_c, 1, 55, 96
2, 12360, Note_off_c, 1, 55, 0
2, 12360, Note_on_c, 1, 63, 96
2, 12456, Note_off_c, 1, 63, 0
2, 12456, Note_on_c, 1, 60, 96
2, 12480, Note_off_c, 1, 60, 0
2, 12504, Note_on_c, 1, 61, 96
2, 12696, Note_off_c, 1, 61, 0
2, 12696, Note_on_c, 1, 67, 96
2, 12792, Note_off_c, 1, 67, 0
2, 12792, Note_on_c, 1, 60, 96
2, 12888, Note_off_c, 1, 60, 0
2, 12888, Note_on_c, 1, 65, 96
2, 12984, Note_off_c, 1, 65, 0
2, 12984, Note_on_c, 1, 55, 96
2, 13008, Note_off_c, 1, 55, 0
2, 13008, Note_on_c, 1, 60, 96
2, 13032, Note_off_c, 1, 60, 0
2, 13056, Note_on_c, 1, 55, 96
2, 13152, Note_off_c, 1, 55, 0
2, 13152, Note_on_c, 1, 60, 96
2, 13344, Note_off_c, 1, 60, 0
2, 13368, Note_on_c, 1, 60, 96
2, 13560, Note_off_c, 1, 60, 0
2, 13560, Note_on_c, 1, 65, 96
2, 13656, Note_off_c, 1, 65, 0
2, 13680, Note_on_c, 1, 60, 96
2, 13872, Note_off_c, 1, 60, 0
2, 13872, Note_on_c, 1, 67, 96
2, 13896, Note_off_c, 1, 67, 0
2, 13896, Note_on_c, 1, 61, 96
2, 13920, Note_off_c, 1, 61, 0
2, 13944, Note_on_c, 1, 61, 96
2, 14040, Note_off_c, 1, 61, 0
2, 14040, Note_on_c, 1, 55, 96
2, 14136, Note_off_c, 1, 55, 0
2, 14136, Note_on_c, 1, 60, 96
2, 14328, Note_off_c, 1, 60, 0
2, 14352, Note_on_c, 1, 58, 96
2, 14448, Note_off_c, 1, 58, 0
2, 14448, Note_on_c, 1, 61, 96
2, 14472, Note_off_c, 1, 61, 0
2, 14472, Note_on_c, 1, 55, 96
2, 14856, Note_off_c, 1, 55, 0
2, 14880, Note_on_c, 1, 58, 96
2, 15072, Note_off_c, 1, 58, 0
2, 15072, Note_on_c, 1, 61, 96
2, 15096, Note_off_c, 1, 61, 0
2, 15096, Note_on_c, 1, 56, 96
2, 15288, Note_off_c, 1, 56, 0
2, 15288, Note_on_c, 1, 63, 96
2, 15480, Note_off_c, 1, 63, 0
2, 15480, Note_on_c, 1, 61, 96
2, 15504, Note_off_c, 1, 61, 0
2, 15504, Note_on_c, 1, 56, 96
2, 15696, Note_off_c, 1, 56, 0
2, 15696, Note_on_c, 1, 58, 96
2, 15888, Note_off_c, 1, 58, 0
2, 16128, Note_on_c, 1, 60, 96
2, 16320, Note_off_c, 1, 60, 0
2, 16320, Note_on_c, 1, 67, 96
2, 16344, Note_off_c, 1, 67, 0
2, 16344, Note_on_c, 1, 61, 96
2, 16368, Note_off_c, 1, 61, 0
2, 16368, Note_on_c, 1, 63, 96
2, 16464, Note_off_c, 1, 63, 0
2, 16488, Note_on_c, 1, 61, 96
2, 16512, Note_off_c, 1, 61, 0
2, 16512, Note_on_c, 1, 63, 96
2, 16608, Note_off_c, 1, 63, 0
2, 16608, Note_on_c, 1, 58, 96
2, 16632, Note_off_c, 1, 58, 0
2, 16632, Note_on_c, 1, 56, 96
2, 16824, Note_off_c, 1, 56, 0
2, 16824, Note_on_c, 1, 55, 96
2, 17208, Note_off_c, 1, 55, 0
2, 17208, Note_on_c, 1, 67, 96
2, 17304, Note_off_c, 1, 67, 0
2, 17304, Note_on_c, 1, 60, 96
2, 17496, Note_off_c, 1, 60, 0
2, 17520, Note_on_c, 1, 60, 96
2, 17712, Note_off_c, 1, 60, 0
2, 17712, Note_on_c, 1, 67, 96
2, 17736, Note_off_c, 1, 67, 0
2, 17736, Note_on_c, 1, 61, 96
2, 17760, Note_off_c, 1, 61, 0
2, 17784, Note_on_c, 1, 60, 96
2, 17976, Note_off_c, 1, 60, 0
2, 17976, Note_on_c, 1, 67, 96
2, 18000, Note_off_c, 1, 67, 0
2, 18000, Note_on_c, 1, 61, 96
2, 18024, Note_off_c, 1, 61, 0
2, 18048, Note_on_c, 1, 63, 96
2, 18072, Note_off_c, 1, 63, 0
2, 18072, Note_on_c, 1, 65, 96
2, 18168, Note_off_c, 1, 65, 0
2, 18168, Note_on_c, 1, 60, 96
2, 18264, Note_off_c, 1, 60, 0
2, 18264, Note_on_c, 1, 60, 96
2, 18360, Note_off_c, 1, 60, 0
2, 18360, Note_on_c, 1, 65, 96
2, 18456, Note_off_c, 1, 65, 0
2, 18456, Note_on_c, 1, 65, 96
2, 18648, Note_off_c, 1, 65, 0
2, 18648, Note_on_c, 1, 55, 96
2, 18744, Note_off_c, 1, 55, 0
2, 18744, Note_on_c, 1, 63, 96
2, 18840, Note_off_c, 1, 63, 0
2, 18840, Note_on_c, 1, 65, 96
2, 18864, Note_off_c, 1, 65, 0
2, 18888, Note_on_c, 1, 65, 96
2, 19080, Note_off_c, 1, 65, 0
2, 19080, Note_on_c, 1, 65, 96
2, 19176, Note_off_c, 1, 65, 0
2, 19176, Note_on_c, 1, 56, 96
2, 19368, Note_off_c, 1, 56, 0
2, 19368, Note_on_c, 1, 60, 96
2, 19392, Note_off_c, 1, 60, 0
2, 19416, Note_on_c, 1, 60, 96
2, 19512, Note_off_c, 1, 60, 0
2, 19512, Note_on_c, 1, 55, 96
2, 19608, Note_off_c, 1, 55, 0
2, 19608, Note_on_c, 1, 58, 96
2, 19800, Note_off_c, 1, 58, 0
2, 19800, Note_on_c, 1, 60, 96
2, 19992, Note_off_c, 1, 60, 0
2, 20016, Note_on_c, 1, 61, 96
2, 20208, Note_off_c, 1, 61, 0
2, 20208, Note_on_c, 1, 58, 96
2, 20400, Note_off_c, 1, 58, 0
2, 20400, Note_on_c, 1, 55, 96
2, 20496, Note_off_c, 1, 55, 0
2, 20496, Note_on_c, 1, 63, 96
2, 20592, Note_off_c, 1, 63, 0
2, 20592, Note_on_c, 1, 65, 96
2, 20616, Note_off_c, 1, 65, 0
2, 20640, Note_on_c, 1, 60, 96
2, 20832, Note_off_c, 1, 60, 0
2, 20832, Note_on_c, 1, 67, 96
2, 20856, Note_off_c, 1, 67, 0
2, 20856, Note_on_c, 1, 61, 96
2, 20880, Note_off_c, 1, 61, 0
2, 20904, Note_on_c, 1, 58, 96
2, 20928, Note_off_c, 1, 58, 0
2, 20928, Note_on_c, 1, 55, 96
2, 21024, Note_off_c, 1, 55, 0
2, 21024, Note_on_c, 1, 58, 96
2, 21048, Note_off_c, 1, 58, 0
2, 21048, Note_on_c, 1, 55, 96
2, 21072, Note_off_c, 1, 55, 0
2, 21072, Note_on_c, 1, 60, 96
2, 21096, Note_off_c, 1, 60, 0
2, 21096, Note_on_c, 1, 55, 96
2, 21120, Note_off_c, 1, 55, 0
2, 21144, Note_on_c, 1, 60, 96
2, 21336, Note_off_c, 1, 60, 0
2, 21336, Note_on_c, 1, 67, 96
2, 21360, Note_off_c, 1, 67, 0
2, 21360, Note_on_c, 1, 56, 96
2, 21552, Note_off_c, 1, 56, 0
2, 21552, Note_on_c, 1, 61, 96
2, 21576, Note_off_c, 1, 61, 0
2, 21576, Note_on_c, 1, 61, 96
2, 21600, Note_off_c, 1, 61, 0
2, 21624, Note_on_c, 1, 60, 96
2, 21816, Note_off_c, 1, 60, 0
2, 21816, Note_on_c, 1, 67, 96
2, 21840, Note_off_c, 1, 67, 0
2, 21840, Note_on_c, 1, 56, 96
2, 22032, Note_off_c, 1, 56, 0
2, 22032, Note_on_c, 1, 61, 96
2, 22056, Note_off_c, 1, 61, 0
2, 22056, Note_on_c, 1, 61, 96
2, 22080, Note_off_c, 1, 61, 0
2, 22104, Note_on_c, 1, 56, 96
2, 22488, Note_off_c, 1, 56, 0
2, 22488, Note_on_c, 1, 61, 96
2, 22512, Note_off_c, 1, 61, 0
2, 22512, Note_on_c, 1, 56, 96
2, 22704, Note_off_c, 1, 56, 0
2, 22704, Note_on_c, 1, 65, 96
2, 22800, Note_off_c, 1, 65, 0
2, 22824, Note_on_c, 1, 65, 96
2, 22920, Note_off_c, 1, 65, 0
2, 22920, Note_on_c, 1, 63, 96
2, 23016, Note_off_c, 1, 63, 0
2, 23016, Note_on_c, 1, 61, 96
2, 23040, Note_off_c, 1, 61, 0
2, 23064, Note_on_c, 1, 67, 96
2, 23160, Note_off_c, 1, 67, 0
2, 23160, Note_on_c, 1, 61, 96
2, 23352, Note_off_c, 1, 61, 0
2, 23352, Note_on_c, 1, 56, 96
2, 23376, Note_off_c, 1, 56, 0
2, 23376, Note_on_c, 1, 60, 96
2, 23472, Note_off_c, 1, 60, 0
2, 23472, Note_on_c, 1, 55, 96
2, 23568, Note_off_c, 1, 55, 0
2, 23568, Note_on_c, 1, 58, 96
2, 23592, Note_off_c, 1, 58, 0
2, 23616, Note_on_c, 1, 58, 96
2, 23712, Note_off_c, 1, 58, 0
2, 23712, Note_on_c, 1, 61, 96
2, 23736, Note_off_c, 1, 61, 0
2, 23736, Note_on_c, 1, 55, 96
2, 24120, Note_off_c, 1, 55, 0
2, 24360, Note_on_c, 1, 58, 96
2, 24552, Note_off_c, 1, 58, 0
2, 24552, Note_on_c, 1, 55, 96
2, 24648, Note_off_c, 1, 55, 0
2, 24648, Note_on_c, 1, 65, 96
2, 24672, Note_off_c, 1, 65, 0
2, 24672, Note_on_c, 1, 63, 96
2, 24768, Note_off_c, 1, 63, 0
2, 24792, Note_on_c, 1, 55, 96
2, 24888, Note_off_c, 1, 55, 0
2, 24888, Note_on_c, 1, 60, 96
2, 25080, Note_off_c, 1, 60, 0
2, 25104, Note_on_c, 1, 65, 96
2, 25296, Note_off_c, 1, 65, 0
2, 25296, Note_on_c, 1, 55, 96
2, 25392, Note_off_c, 1, 55, 0
2, 25392, Note_on_c, 1, 60, 96
2, 25584, Note_off_c, 1, 60, 0
2, 25584, Note_on_c, 1, 67, 96
2, 25608, Note_off_c, 1, 67, 0
2, 25632, Note_on_c, 1, 55, 96
2, 26016, Note_off_c, 1, 55, 0
2, 26016, Note_on_c, 1, 65, 96
2, 26112, Note_off_c, 1, 65, 0
2, 26112, Note_on_c, 1, 61, 96
2, 26304, Note_off_c, 1, 61, 0
2, 26304, Note_on_c, 1, 56, 96
2, 26496, Note_off_c, 1, 56, 0
2, 26520, Note_on_c, 1, 58, 96
2, 26616, Note_off_c, 1, 58, 0
2, 26616, Note_on_c, 1, 61, 96
2, 26640, Note_off_c, 1, 61, 0
2, 26640, Note_on_c, 1, 55, 96
2, 27024, Note_off_c, 1, 55, 0
2, 27264, Note_on_c, 1, 58, 96
2, 27456, Note_off_c, 1, 58, 0
2, 27456, Note_on_c, 1, 61, 96
2, 27480, Note_off_c, 1, 61, 0
2, 27480, Note_on_c, 1, 63, 96
2, 27576, Note_off_c, 1, 63, 0
2, 27576, Note_on_c, 1, 60, 96
2, 27600, Note_off_c, 1, 60, 0
2, 27624, Note_on_c, 1, 60, 96
2, 27816, Note_off_c, 1, 60, 0
2, 27816, Note_on_c, 1, 67, 96
2, 27840, Note_off_c, 1, 67, 0
2, 27840, Note_on_c, 1, 61, 96
2, 27864, Note_off_c, 1, 61, 0
2, 27888, Note_on_c, 1, 55, 96
2, 27912, Note_off_c, 1, 55, 0
2, 27912, Note_on_c, 1, 58, 96
2, 28104, Note_off_c, 1, 58, 0
2, 28104, Note_on_c, 1, 58, 96
2, 28128, Note_off_c, 1, 58, 0
2, 28128, Note_on_c, 1, 55, 96
2, 28224, Note_off_c, 1, 55, 0
2, 28224, Note_on_c, 1, 55, 96
2, 28320, Note_off_c, 1, 55, 0
2, 28344, Note_on_c, 1, 55, 96
2, 28368, Note_off_c, 1, 55, 0
2, 28368, Note_on_c, 1, 56, 96
2, 28560, Note_off_c, 1, 56, 0
2, 28560, Note_on_c, 1, 61, 96
2, 28656, Note_off_c, 1, 61, 0
2, 28656, Note_on_c, 1, 65, 96
2, 28752, Note_off_c, 1, 65, 0
2, 28752, Note_on_c, 1, 61, 96
2, 28944, Note_off_c, 1, 61, 0
2, 28944, Note_on_c, 1, 56, 96
2, 29136, Note_off_c, 1, 56, 0
2, 29136, Note_on_c, 1, 61, 96
2, 29160, Note_off_c, 1, 61, 0
2, 29160, Note_on_c, 1, 60, 96
2, 29184, Note_off_c, 1, 60, 0
2, 29208, Note_on_c, 1, 58, 96
2, 29232, Note_off_c, 1, 58, 0
2, 29232, Note_on_c, 1, 55, 96
2, 29328, Note_off_c, 1, 55, 0
2, 29328, Note_on_c, 1, 67, 96
2, 29424, Note_off_c, 1, 67, 0
2, 29424, Note_on_c, 1, 67, 96
2, 29448, Note_off_c, 1, 67, 0
2, 29448, Note_on_c, 1, 61, 96
2, 29472, Note_off_c, 1, 61, 0
2, 29472, Note_on_c, 1, 56, 96
2, 29664, Note_off_c, 1, 56, 0
2, 29664, Note_on_c, 1, 60, 96
2, 29856, Note_off_c, 1, 60, 0
2, 29856, Note_on_c, 1, 61, 96
2, 29880, Note_off_c, 1, 61, 0
2, 29880, Note_on_c, 1, 67, 96
2, 30072, Note_off_c, 1, 67, 0
2, 30072, Note_on_c, 1, 60, 96
2, 30264, Note_off_c, 1, 60, 0
2, 30288, Note_on_c, 1, 60, 96
2, 30480, Note_off_c, 1, 60, 0
2, 30480, Note_on_c, 1, 65, 96
2, 30576, Note_off_c, 1, 65, 0
2, 30600, Note_on_c, 1, 60, 96
2, 30792, Note_off_c, 1, 60, 0
2, 30792, Note_on_c, 1, 67, 96
2, 30816, Note_off_c, 1, 67, 0
2, 30816, Note_on_c, 1, 61, 96
2, 30840, Note_off_c, 1, 61, 0
2, 30864, Note_on_c, 1, 65, 96
2, 30888, Note_off_c, 1, 65, 0
2, 30888, Note_on_c, 1, 61, 96
2, 30984, Note_off_c, 1, 61, 0
2, 30984, Note_on_c, 1, 55, 96
2, 31008, Note_off_c, 1, 55, 0
2, 31008, Note_on_c, 1, 55, 96
2, 31104, Note_off_c, 1, 55, 0
2, 31104, Note_on_c, 1, 60, 96
2, 31200, Note_off_c, 1, 60, 0
2, 31224, Note_on_c, 1, 55, 96
2, 31248, Note_off_c, 1, 55, 0
2, 31248, Note_on_c, 1, 60, 96
2, 31272, Note_off_c, 1, 60, 0
2, 31272, Note_on_c, 1, 60, 96
2, 31296, Note_off_c, 1, 60, 0
2, 31296, Note_on_c, 1, 56, 96
2, 31488, Note_off_c, 1, 56, 0
2, 31488, Note_on_c, 1, 61, 96
2, 31512, Note_off_c, 1, 61, 0
2, 31512, Note_on_c, 1, 58, 96
2, 31704, Note_off_c, 1, 58, 0
2, 31704, Note_on_c, 1, 58, 96
2, 31896, Note_off_c, 1, 58, 0
2, 31920, Note_on_c, 1, 63, 96
2, 31944, Note_off_c, 1, 63, 0
2, 31944, Note_on_c, 1, 56, 96
2, 32136, Note_off_c, 1, 56, 0
2, 32136, Note_on_c, 1, 65, 96
2, 32232, Note_off_c, 1, 65, 0
2, 32232, Note_on_c, 1, 61, 96
2, 32328, Note_off_c, 1, 61, 0
2, 32352, Note_on_c, 1, 65, 96
2, 32544, Note_off_c, 1, 65, 0
2, 32544, Note_on_c, 1, 67, 96
2, 32568, Note_off_c, 1, 67, 0
2, 32568, Note_on_c, 1, 55, 96
2, 32664, Note_off_c, 1, 55, 0
2, 32664, Note_on_c, 1, 58, 96
2, 32688, Note_off_c, 1, 58, 0
2, 32688, Note_on_c, 1, 67, 96
2, 32712, Note_off_c, 1, 67, 0
2, 32736, Note_on_c, 1, 55, 96
2, 33120, Note_off_c, 1, 55, 0
2, 33120, Note_on_c, 1, 65, 96
2, 33216, Note_off_c, 1, 65, 0
2, 33216, Note_on_c, 1, 61, 96
2, 33408, Note_off_c, 1, 61, 0
2, 33432, Note_on_c, 1, 56, 96
2, 33624, Note_off_c, 1, 56, 0
2, 33624, Note_on_c, 1, 61, 96
2, 33648, Note_off_c, 1, 61, 0
2, 33648, Note_on_c, 1, 58, 96
2, 33672, Note_off_c, 1, 58, 0
2, 33672, Note_on_c, 1, 61, 96
2, 33696, Note_off_c, 1, 61, 0
2, 33696, Note_on_c, 1, 55, 96
2, 33792, Note_off_c, 1, 55, 0
2, 33792, Note_on_c, 1, 63, 96
2, 33984, Note_off_c, 1, 63, 0
2, 33984, Note_on_c, 1, 61, 96
2, 34008, Note_off_c, 1, 61, 0
2, 34008, Note_on_c, 1, 60, 96
2, 34032, Note_off_c, 1, 60, 0
2, 34056, Note_on_c, 1, 55, 96
2, 34440, Note_off_c, 1, 55, 0
2, 34440, Note_on_c, 1, 65, 96
2, 34536, Note_off_c, 1, 65, 0
2, 34536, Note_on_c, 1, 61, 96
2, 34728, Note_off_c, 1, 61, 0
2, 34728, Note_on_c, 1, 56, 96
2, 34920, Note_off_c, 1, 56, 0
2, 34944, Note_on_c, 1, 63, 96
2, 35040, Note_off_c, 1, 63, 0
2, 35040, Note_on_c, 1, 61, 96
2, 35232, Note_off_c, 1, 61, 0
2, 35232, Note_on_c, 1, 61, 96
2, 35328, Note_off_c, 1, 61, 0
2, 35328, Note_on_c, 1, 56, 96
2, 35352, Note_off_c, 1, 56, 0
2, 35352, Note_on_c, 1, 61, 96
2, 35376, Note_off_c, 1, 61, 0
2, 35376, Note_on_c, 1, 56, 96
2, 35568, Note_off_c, 1, 56, 0
2, 35568, Note_on_c, 1, 58, 96
2, 35760, Note_off_c, 1, 58, 0
2, 36720, Note_on_c, 1, 55, 96
2, 37104, Note_off_c, 1, 55, 0
2, 37104, Note_on_c, 1, 65, 96
2, 37200, Note_off_c, 1, 65, 0
2, 37200, Note_on_c, 1, 61, 96
2, 37392, Note_off_c, 1, 61, 0
2, 37392, Note_on_c, 1, 56, 96
2, 37584, Note_off_c, 1, 56, 0
2, 37608, Note_on_c, 1, 65, 96
2, 37800, Note_off_c, 1, 65, 0
2, 37800, Note_on_c, 1, 65, 96
2, 37896, Note_off_c, 1, 65, 0
2, 37896, Note_on_c, 1, 56, 96
2, 38088, Note_off_c, 1, 56, 0
2, 38088, Note_on_c, 1, 60, 96
2, 38112, Note_off_c, 1, 60, 0
2, 38112, Note_on_c, 1, 58, 96
2, 38304, Note_off_c, 1, 58, 0
2, 38328, Note_on_c, 1, 55, 96
2, 38352, Note_off_c, 1, 55, 0
2, 38352, Note_on_c, 1, 56, 96
2, 38544, Note_off_c, 1, 56, 0
2, 38544, Note_on_c, 1, 61, 96
2, 38568, Note_off_c, 1, 61, 0
2, 39336, Note_on_c, 1, 61, 96
2, 39432, Note_off_c, 1, 61, 0
2, 39432, Note_on_c, 1, 61, 96
2, 39624, Note_off_c, 1, 61, 0
2, 39624, Note_on_c, 1, 58, 96
2, 39816, Note_off_c, 1, 58, 0
2, 39816, Note_on_c, 1, 58, 96
2, 39840, Note_off_c, 1, 58, 0
2, 39840, Note_on_c, 1, 60, 96
2, 39936, Note_off_c, 1, 60, 0
2, 39936, Note_on_c, 1, 61, 96
2, 39960, Note_off_c, 1, 61, 0
2, 40344, Note_on_c, 1, 60, 96
2, 40368, Note_off_c, 1, 60, 0
2, 40368, Note_on_c, 1, 56, 96
2, 40560, Note_off_c, 1, 56, 0
2, 40560, Note_on_c, 1, 65, 96
2, 40656, Note_off_c, 1, 65, 0
2, 40656, Note_on_c, 1, 67, 96
2, 40752, Note_off_c, 1, 67, 0
2, 41136, Note_on_c, 1, 67, 96
2, 41232, Note_off_c, 1, 67, 0
2, 41232, Note_on_c, 1, 61, 96
2, 41424, Note_off_c, 1, 61, 0
2, 41424, Note_on_c, 1, 61, 96
2, 41520, Note_off_c, 1, 61, 0
2, 41520, Note_on_c, 1, 67, 96
2, 41616, Note_off_c, 1, 67, 0
2, 42000, Note_on_c, 1, 58, 96
2, 42096, Note_off_c, 1, 58, 0
2, 42096, Note_on_c, 1, 63, 96
2, 42192, Note_off_c, 1, 63, 0
2, 42192, Note_on_c, 1, 61, 96
2, 42216, Note_off_c, 1, 61, 0
2, 42216, Note_on_c, 1, 61, 96
2, 42240, Note_off_c, 1, 61, 0
2, 42624, Note_on_c, 1, 56, 96
2, 42648, Note_off_c, 1, 56, 0
2, 42648, Note_on_c, 1, 55, 96
2, 42744, Note_off_c, 1, 55, 0
2, 42744, Note_on_c, 1, 56, 96
2, 42936, Note_off_c, 1, 56, 0
2, 42936, Note_on_c, 1, 60, 96
2, 42960, Note_off_c, 1, 60, 0
2, 43344, Note_on_c, 1, 65, 96
2, 43536, Note_off_c, 1, 65, 0
2, 43536, Note_on_c, 1, 55, 96
2, 43560, Note_off_c, 1, 55, 0
2, 43560, Note_on_c, 1, 60, 96
2, 43752, Note_off_c, 1, 60, 0
2, 43752, Note_on_c, 1, 58, 96
2, 43776, Note_off_c, 1, 58, 0
2, 43776, Note_on_c, 1, 67, 96
2, 43800, Note_off_c, 1, 67, 0
2, 44184, Note_on_c, 1, 56, 96
2, 44208, Note_off_c, 1, 56, 0
2, 44208, Note_on_c, 1, 61, 96
2, 44232, Note_off_c, 1, 61, 0
2, 44232, Note_on_c, 1, 60, 96
2, 44328, Note_off_c, 1, 60, 0
2, 44328, Note_on_c, 1, 60, 96
2, 44424, Note_off_c, 1, 60, 0
2, 44808, Note_on_c, 1, 56, 96
2, 44832, Note_off_c, 1, 56, 0
2, 44832, Note_on_c, 1, 55, 96
2, 44856, Note_off_c, 1, 55, 0
2, 44856, Note_on_c, 1, 60, 96
2, 44952, Note_off_c, 1, 60, 0
2, 44952, Note_on_c, 1, 60, 96
2, 45048, Note_off_c, 1, 60, 0
2, 45432, Note_on_c, 1, 67, 96
2, 45456, Note_off_c, 1, 67, 0
2, 45456, Note_on_c, 1, 55, 96
2, 45480, Note_off_c, 1, 55, 0
2, 45480, Note_on_c, 1, 61, 96
2, 45576, Note_off_c, 1, 61, 0
2, 45576, Note_on_c, 1, 61, 96
2, 45672, Note_off_c, 1, 61, 0
2, 45672, Note_on_c, 1, 61, 96
2, 45696, Note_off_c, 1, 61, 0
2, 45696, Note_on_c, 1, 56, 96
2, 45888, Note_off_c, 1, 56, 0
2, 46272, Note_on_c, 1, 67, 96
2, 46368, Note_off_c, 1, 67, 0
2, 46368, Note_on_c, 1, 65, 96
2, 46464, Note_off_c, 1, 65, 0
2, 46464, Note_on_c, 1, 58, 96
2, 46488, Note_off_c, 1, 58, 0
2, 46488, Note_on_c, 1, 58, 96
2, 46584, Note_off_c, 1, 58, 0
2, 46584, Note_on_c, 1, 61, 96
2, 46608, Note_off_c, 1, 61, 0
2, 46608, Note_on_c, 1, 60, 96
2, 46800, Note_off_c, 1, 60, 0
2, 47184, Note_on_c, 1, 67, 96
2, 47208, Note_off_c, 1, 67, 0
2, 47208, Note_on_c, 1, 65, 96
2, 47304, Note_off_c, 1, 65, 0
2, 47304, Note_on_c, 1, 65, 96
2, 47400, Note_off_c, 1, 65, 0
2, 47400, Note_on_c, 1, 58, 96
2, 47496, Note_off_c, 1, 58, 0
2, 47880, Note_on_c, 1, 67, 96
2, 47904, Note_off_c, 1, 67, 0
2, 47904, Note_on_c, 1, 65, 96
2, 48000, Note_off_c, 1, 65, 0
2, 48000, Note_on_c, 1, 61, 96
2, 48192, Note_off_c, 1, 61, 0
2, 48192, Note_on_c, 1, 58, 96
2, 48384, Note_off_c, 1, 58, 0
2, 48384, Note_on_c, 1, 61, 96
2, 48408, Note_off_c, 1, 61, 0
2, 48792, Note_on_c, 1, 56, 96
2, 48816, Note_off_c, 1, 56, 0
2, 48816, Note_on_c, 1, 56, 96
2, 49008, Note_off_c, 1, 56, 0
2, 49008, Note_on_c, 1, 55, 96
2, 49032, Note_off_c, 1, 55, 0
2, 49032, Note_on_c, 1, 58, 96
2, 49128, Note_off_c, 1, 58, 0
2, 49128, Note_on_c, 1, 61, 96
2, 49152, Note_off_c, 1, 61, 0
2, 49536, Note_on_c, 1, 63, 96
2, 49560, Note_off_c, 1, 63, 0
2, 49560, Note_on_c, 1, 61, 96
2, 49584, Note_off_c, 1, 61, 0
2, 49584, Note_on_c, 1, 55, 96
2, 49608, Note_off_c, 1, 55, 0
2, 49608, Note_on_c, 1, 60, 96
2, 49800, Note_off_c, 1, 60, 0
2, 49800, Note_on_c, 1, 67, 96
2, 49824, Note_off_c, 1, 67, 0
2, 49824, Note_on_c, 1, 61, 96
2, 49848, Note_off_c, 1, 61, 0
2, 49848, Note_on_c, 1, 56, 96
2, 50040, Note_off_c, 1, 56, 0
2, 50424, Note_on_c, 1, 58, 96
2, 50520, Note_off_c, 1, 58, 0
2, 50520, Note_on_c, 1, 63, 96
2, 50616, Note_off_c, 1, 63, 0
2, 50616, Note_on_c, 1, 65, 96
2, 50712, Note_off_c, 1, 65, 0
2, 50712, Note_on_c, 1, 60, 96
2, 50904, Note_off_c, 1, 60, 0
2, 51288, Note_on_c, 1, 60, 96
2, 51480, Note_off_c, 1, 60, 0
2, 51480, Note_on_c, 1, 55, 96
2, 51576, Note_off_c, 1, 55, 0
2, 51576, Note_on_c, 1, 58, 96
2, 51600, Note_off_c, 1, 58, 0
2, 51600, Note_on_c, 1, 58, 96
2, 51696, Note_off_c, 1, 58, 0
2, 51696, Note_on_c, 1, 61, 96
2, 51720, Note_off_c, 1, 61, 0
2, 51720, Note_on_c, 1, 60, 96
2, 51912, Note_off_c, 1, 60, 0
2, 52296, Note_on_c, 1, 56, 96
2, 52320, Note_off_c, 1, 56, 0
2, 52320, Note_on_c, 1, 65, 96
2, 52416, Note_off_c, 1, 65, 0
2, 52416, Note_on_c, 1, 55, 96
2, 52440, Note_off_c, 1, 55, 0
2, 52440, Note_on_c, 1, 60, 96
2, 52632, Note_off_c, 1, 60, 0
2, 53016, Note_on_c, 1, 56, 96
2, 53040, Note_off_c, 1, 56, 0
2, 53040, Note_on_c, 1, 65, 96
2, 53136, Note_off_c, 1, 65, 0
2, 53136, Note_on_c, 1, 67, 96
2, 53328, Note_off_c, 1, 67, 0
2, 53712, Note_on_c, 1, 61, 96
2, 53808, Note_off_c, 1, 61, 0
2, 53808, Note_on_c, 1, 65, 96
2, 53904, Note_off_c, 1, 65, 0
2, 53904, Note_on_c, 1, 65, 96
2, 54000, Note_off_c, 1, 65, 0
2, 54000, Note_on_c, 1, 63, 96
2, 54096, Note_off_c, 1, 63, 0
2, 54480, Note_on_c, 1, 58, 96
2, 54504, Note_off_c, 1, 58, 0
2, 54504, Note_on_c, 1, 60, 96
2, 54600, Note_off_c, 1, 60, 0
2, 54600, Note_on_c, 1, 65, 96
2, 54696, Note_off_c, 1, 65, 0
2, 54696, Note_on_c, 1, 61, 96
2, 54888, Note_off_c, 1, 61, 0
2, 54888, Note_on_c, 1, 60, 96
2, 54912, Note_off_c, 1, 60, 0
2, 55296, Note_on_c, 1, 56, 96
2, 55320, Note_off_c, 1, 56, 0
2, 55320, Note_on_c, 1, 61, 96
2, 55512, Note_off_c, 1, 61, 0
2, 55512, Note_on_c, 1, 60, 96
2, 55608, Note_off_c, 1, 60, 0
2, 55608, Note_on_c, 1, 56, 96
2, 55632, Note_off_c, 1, 56, 0
2, 56016, Note_on_c, 1, 58, 96
2, 56040, Note_off_c, 1, 58, 0
2, 56040, Note_on_c, 1, 55, 96
2, 56064, Note_off_c, 1, 55, 0
2, 56064, Note_on_c, 1, 56, 96
2, 56256, Note_off_c, 1, 56, 0
2, 56256, Note_on_c, 1, 56, 96
2, 56448, Note_off_c, 1, 56, 0
2, 56448, Note_on_c, 1, 55, 96
2, 56544, Note_off_c, 1, 55, 0
2, 56544, Note_on_c, 1, 55, 96
2, 56568, Note_off_c, 1, 55, 0
2, 56568, Note_on_c, 1, 65, 96
2, 56592, Note_off_c, 1, 65, 0
2, 56592, Note_on_c, 1, 61, 96
2, 56616, Note_off_c, 1, 61, 0
2, 57000, Note_on_c, 1, 56, 96
2, 57024, Note_off_c, 1, 56, 0
2, 57024, Note_on_c, 1, 65, 96
2, 57120, Note_off_c, 1, 65, 0
2, 57120, Note_on_c, 1, 67, 96
2, 57312, Note_off_c, 1, 67, 0
2, 57696, Note_on_c, 1, 60, 96
2, 57888, Note_off_c, 1, 60, 0
2, 57888, Note_on_c, 1, 56, 96
2, 58080, Note_off_c, 1, 56, 0
2, 58080, Note_on_c, 1, 55, 96
2, 58104, Note_off_c, 1, 55, 0
2, 58104, Note_on_c, 1, 55, 96
2, 58488, Note_off_c, 1, 55, 0
2, 58872, Note_on_c, 1, 58, 96
2, 59064, Note_off_c, 1, 58, 0
2, 59064, Note_on_c, 1, 55, 96
2, 59256, Note_off_c, 1, 55, 0
2, 59256, Note_on_c, 1, 61, 96
2, 59448, Note_off_c, 1, 61, 0
2, 59448, Note_on_c, 1, 55, 96
2, 59472, Note_off_c, 1, 55, 0
2, 59472, Note_on_c, 1, 56, 96
2, 59664, Note_off_c, 1, 56, 0
2, 59664, Note_on_c, 1, 61, 96
2, 59688, Note_off_c, 1, 61, 0
2, 60072, Note_on_c, 1, 58, 96
2, 60096, Note_off_c, 1, 58, 0
2, 60096, Note_on_c, 1, 61, 96
2, 60288, Note_off_c, 1, 61, 0
2, 60288, Note_on_c, 1, 67, 96
2, 60384, Note_off_c, 1, 67, 0
2, 60768, Note_on_c, 1, 58, 96
2, 60960, Note_off_c, 1, 58, 0
2, 60960, Note_on_c, 1, 60, 96
2, 61152, Note_off_c, 1, 60, 0
2, 61152, Note_on_c, 1, 55, 96
2, 61176, Note_off_c, 1, 55, 0
2, 61176, Note_on_c, 1, 60, 96
2, 61368, Note_off_c, 1, 60, 0
2, 61368, Note_on_c, 1, 55, 96
2, 61464, Note_off_c, 1, 55, 0
2, 61464, Note_on_c, 1, 65, 96
2, 61560, Note_off_c, 1, 65, 0
2, 61560, Note_on_c, 1, 63, 96
2, 61656, Note_off_c, 1, 63, 0
2, 62040, Note_on_c, 1, 61, 96
2, 62136, Note_off_c, 1, 61, 0
2, 62136, Note_on_c, 1, 55, 96
2, 62160, Note_off_c, 1, 55, 0
2, 62160, Note_on_c, 1, 60, 96
2, 62352, Note_off_c, 1, 60, 0
2, 62352, Note_on_c, 1, 58, 96
2, 62376, Note_off_c, 1, 58, 0
2, 62376, Note_on_c, 1, 67, 96
2, 62400, Note_off_c, 1, 67, 0
2, 62784, Note_on_c, 1, 60, 96
2, 62976, Note_off_c, 1, 60, 0
2, 62976, Note_on_c, 1, 65, 96
2, 63072, Note_off_c, 1, 65, 0
2, 63072, Note_on_c, 1, 65, 96
2, 63168, Note_off_c, 1, 65, 0
2, 63168, Note_on_c, 1, 60, 96
2, 63360, Note_off_c, 1, 60, 0
2, 63360, Note_on_c, 1, 67, 96
2, 63384, Note_off_c, 1, 67, 0
2, 63768, Note_on_c, 1, 65, 96
2, 63864, Note_off_c, 1, 65, 0
2, 63864, Note_on_c, 1, 63, 96
2, 64056, Note_off_c, 1, 63, 0
2, 64056, Note_on_c, 1, 61, 96
2, 64080, Note_off_c, 1, 61, 0
2, 64080, Note_on_c, 1, 63, 96
2, 64176, Note_off_c, 1, 63, 0
2, 64560, Note_on_c, 1, 67, 96
2, 64584, Note_off_c, 1, 67, 0
2, 64584, Note_on_c, 1, 65, 96
2, 64680, Note_off_c, 1, 65, 0
2, 64680, Note_on_c, 1, 56, 96
2, 64872, Note_off_c, 1, 56, 0
2, 64872, Note_on_c, 1, 58, 96
2, 65064, Note_off_c, 1, 58, 0
2, 65064, Note_on_c, 1, 61, 96
2, 65088, Note_off_c, 1, 61, 0
2, 65472, Note_on_c, 1, 67, 96
2, 65568, Note_off_c, 1, 67, 0
2, 65568, Note_on_c, 1, 61, 96
2, 65592, Note_off_c, 1, 61, 0
2, 65592, Note_on_c, 1, 63, 96
2, 65688, Note_off_c, 1, 63, 0
2, 65688, Note_on_c, 1, 58, 96
2, 65712, Note_off_c, 1, 58, 0
2, 65712, Note_on_c, 1, 55, 96
2, 65808, Note_off_c, 1, 55, 0
2, 65808, Note_on_c, 1, 60, 96
2, 65904, Note_off_c, 1, 60, 0
2, 66288, Note_on_c, 1, 60, 96
2, 66480, Note_off_c, 1, 60, 0
2, 66480, Note_on_c, 1, 56, 96
2, 66672, Note_off_c, 1, 56, 0
2, 66672, Note_on_c, 1, 55, 96
2, 66696, Note_off_c, 1, 55, 0
2, 66696, Note_on_c, 1, 55, 96
2, 67080, Note_off_c, 1, 55, 0
2, 67464, Note_on_c, 1, 58, 96
2, 67488, Note_off_c, 1, 58, 0
2, 67488, Note_on_c, 1, 65, 96
2, 67584, Note_off_c, 1, 65, 0
2, 67584, Note_on_c, 1, 60, 96
2, 67680, Note_off_c, 1, 60, 0
2, 67680, Note_on_c, 1, 60, 96
2, 67776, Note_off_c, 1, 60, 0
2, 67776, Note_on_c, 1, 55, 96
2, 67800, Note_off_c, 1, 55, 0
2, 67800, Note_on_c, 1, 56, 96
2, 67992, Note_off_c, 1, 56, 0
2, 68376, Note_on_c, 1, 60, 96
2, 68568, Note_off_c, 1, 60, 0
2, 68568, Note_on_c, 1, 56, 96
2, 68760, Note_off_c, 1, 56, 0
2, 68760, Note_on_c, 1, 61, 96
2, 68784, Note_off_c, 1, 61, 0
2, 68784, Note_on_c, 1, 61, 96
2, 68808, Note_off_c, 1, 61, 0
2, 69192, Note_on_c, 1, 58, 96
2, 69384, Note_off_c, 1, 58, 0
2, 69384, Note_on_c, 1, 58, 96
2, 69408, Note_off_c, 1, 58, 0
2, 69408, Note_on_c, 1, 55, 96
2, 69504, Note_off_c, 1, 55, 0
2, 69504, Note_on_c, 1, 58, 96
2, 69696, Note_off_c, 1, 58, 0
2, 69696, Note_on_c, 1, 58, 96
2, 69888, Note_off_c, 1, 58, 0
2, 69888, Note_on_c, 1, 65, 96
2, 69984, Note_off_c, 1, 65, 0
2, 69984, Note_on_c, 1, 56, 96
2, 70176, Note_off_c, 1, 56, 0
2, 70176, Note_on_c, 1, 58, 96
2, 70368, Note_off_c, 1, 58, 0
2, 70752, Note_on_c, 1, 56, 96
2, 70776, Note_off_c, 1, 56, 0
2, 70776, Note_on_c, 1, 56, 96
2, 70968, Note_off_c, 1, 56, 0
2, 70968, Note_on_c, 1, 61, 96
2, 71160, Note_off_c, 1, 61, 0
2, 71160, Note_on_c, 1, 58, 96
2, 71352, Note_off_c, 1, 58, 0
2, 71352, Note_on_c, 1, 67, 96
2, 71376, Note_off_c, 1, 67, 0
2, 71760, Note_on_c, 1, 60, 96
2, 71784, Note_off_c, 1, 60, 0
2, 71784, Note_on_c, 1, 56, 96
2, 71976, Note_off_c, 1, 56, 0
2, 71976, Note_on_c, 1, 55, 96
2, 72000, Note_off_c, 1, 55, 0
2, 72000, Note_on_c, 1, 65, 96
2, 72192, Note_off_c, 1, 65, 0
2, 72192, Note_on_c, 1, 61, 96
2, 72216, Note_off_c, 1, 61, 0
2, 72216, Note_on_c, 1, 56, 96
2, 72408, Note_off_c, 1, 56, 0
2, 72792, Note_on_c, 1, 56, 96
2, 72816, Note_off_c, 1, 56, 0
2, 72816, Note_on_c, 1, 56, 96
2, 73008, Note_off_c, 1, 56, 0
2, 73008, Note_on_c, 1, 55, 96
2, 73104, Note_off_c, 1, 55, 0
2, 73104, Note_on_c, 1, 58, 96
2, 73128, Note_off_c, 1, 58, 0
2, 73128, Note_on_c, 1, 58, 96
2, 73224, Note_off_c, 1, 58, 0
2, 73608, Note_on_c, 1, 55, 96
2, 73632, Note_off_c, 1, 55, 0
2, 73632, Note_on_c, 1, 56, 96
2, 73824, Note_off_c, 1, 56, 0
2, 73824, Note_on_c, 1, 61, 96
2, 73920, Note_off_c, 1, 61, 0
2, 74304, Note_on_c, 1, 61, 96
2, 74328, Note_off_c, 1, 61, 0
2, 74328, Note_on_c, 1, 63, 96
2, 74424, Note_off_c, 1, 63, 0
2, 74424, Note_on_c, 1, 65, 96
2, 74448, Note_off_c, 1, 65, 0
2, 74448, Note_on_c, 1, 55, 96
2, 74544, Note_off_c, 1, 55, 0
2, 74544, Note_on_c, 1, 63, 96
2, 74640, Note_off_c, 1, 63, 0
2, 74640, Note_on_c, 1, 61, 96
2, 74664, Note_off_c, 1, 61, 0
2, 75048, Note_on_c, 1, 58, 96
2, 75240, Note_off_c, 1, 58, 0
2, 75240, Note_on_c, 1, 65, 96
2, 75336, Note_off_c, 1, 65, 0
2, 75336, Note_on_c, 1, 58, 96
2, 75360, Note_off_c, 1, 58, 0
2, 75360, Note_on_c, 1, 58, 96
2, 75456, Note_off_c, 1, 58, 0
2, 75840, Note_on_c, 1, 61, 96
2, 76032, Note_off_c, 1, 61, 0
2, 76032, Note_on_c, 1, 61, 96
2, 76128, Note_off_c, 1, 61, 0
2, 76128, Note_on_c, 1, 56, 96
2, 76152, Note_off_c, 1, 56, 0
2, 76152, Note_on_c, 1, 56, 96
2, 76344, Note_off_c, 1, 56, 0
2, 76344, Note_on_c, 1, 61, 96
2, 76368, Note_off_c, 1, 61, 0
2, 76368, Note_on_c, 1, 60, 96
2, 76464, Note_off_c, 1, 60, 0
2, 76464, Note_on_c, 1, 60, 96
2, 76560, Note_off_c, 1, 60, 0
2, 76560, Note_on_c, 1, 55, 96
2, 76584, Note_off_c, 1, 55, 0
2, 76968, Note_on_c, 1, 58, 96
2, 77160, Note_off_c, 1, 58, 0
2, 77160, Note_on_c, 1, 67, 96
2, 77184, Note_off_c, 1, 67, 0
2, 77184, Note_on_c, 1, 61, 96
2, 77208, Note_off_c, 1, 61, 0
2, 77208, Note_on_c, 1, 61, 96
2, 77232, Note_off_c, 1, 61, 0
2, 77232, Note_on_c, 1, 67, 96
2, 77328, Note_off_c, 1, 67, 0
2, 77712, Note_on_c, 1, 55, 96
2, 77736, Note_off_c, 1, 55, 0
2, 77736, Note_on_c, 1, 67, 96
2, 77832, Note_off_c, 1, 67, 0
2, 77832, Note_on_c, 1, 67, 96
2, 77928, Note_off_c, 1, 67, 0
2, 77928, Note_on_c, 1, 60, 96
2, 78024, Note_off_c, 1, 60, 0
2, 78024, Note_on_c, 1, 61, 96
2, 78048, Note_off_c, 1, 61, 0
2, 78432, Note_on_c, 1, 67, 96
2, 78456, Note_off_c, 1, 67, 0
2, 78456, Note_on_c, 1, 65, 96
2, 78552, Note_off_c, 1, 65, 0
2, 78552, Note_on_c, 1, 56, 96
2, 78744, Note_off_c, 1, 56, 0
2, 78744, Note_on_c, 1, 63, 96
2, 78840, Note_off_c, 1, 63, 0
2, 79224, Note_on_c, 1, 67, 96
2, 79248, Note_off_c, 1, 67, 0
2, 79248, Note_on_c, 1, 55, 96
2, 79272, Note_off_c, 1, 55, 0
2, 79272, Note_on_c, 1, 60, 96
2, 79464, Note_off_c, 1, 60, 0
2, 79848, Note_on_c, 1, 58, 96
2, 79872, Note_off_c, 1, 58, 0
2, 79872, Note_on_c, 1, 67, 96
2, 79896, Note_off_c, 1, 67, 0
2, 79896, Note_on_c, 1, 55, 96
2, 79920, Note_off_c, 1, 55, 0
2, 79920, Note_on_c, 1, 55, 96
2, 80016, Note_off_c, 1, 55, 0
2, 80016, Note_on_c, 1, 63, 96
2, 80112, Note_off_c, 1, 63, 0
2, 80496, Note_on_c, 1, 63, 96
2, 80520, Note_off_c, 1, 63, 0
2, 80520, Note_on_c, 1, 65, 96
2, 80616, Note_off_c, 1, 65, 0
2, 80616, Note_on_c, 1, 56, 96
2, 80808, Note_off_c, 1, 56, 0
2, 80808, Note_on_c, 1, 58, 96
2, 80904, Note_off_c, 1, 58, 0
2, 81288, Note_on_c, 1, 58, 96
2, 81480, Note_off_c, 1, 58, 0
2, 81480, Note_on_c, 1, 58, 96
2, 81504, Note_off_c, 1, 58, 0
2, 81504, Note_on_c, 1, 56, 96
2, 81696, Note_off_c, 1, 56, 0
2, 81696, Note_on_c, 1, 61, 96
2, 81720, Note_off_c, 1, 61, 0
2, 81720, Note_on_c, 1, 65, 96
2, 81912, Note_off_c, 1, 65, 0
2, 81912, End_track
3, 0, Start_track
3, 0, Text_t, "Cicada at Fri Jan 20 03:57:39 2012"
3, 0, Tempo, 500000
3, 0, Program_c, 1, 6
3, 0, Program_c, 2, 41
3, 0, Time_signature, 7, 1, 24, 8
3, 0, Key_signature, 1, "major"
3, 0, Note_on_c, 2, 48, 96
3, 96, Note_off_c, 2, 48, 0
3, 96, Note_on_c, 2, 49, 96
3, 120, Note_off_c, 2, 49, 0
3, 120, Note_on_c, 2, 48, 96
3, 312, Note_off_c, 2, 48, 0
3, 312, Note_on_c, 2, 48, 96
3, 504, Note_off_c, 2, 48, 0
3, 504, Note_on_c, 2, 55, 96
3, 528, Note_off_c, 2, 55, 0
3, 528, Note_on_c, 2, 49, 96
3, 552, Note_off_c, 2, 49, 0
3, 576, Note_on_c, 2, 55, 96
3, 672, Note_off_c, 2, 55, 0
3, 672, Note_on_c, 2, 44, 96
3, 864, Note_off_c, 2, 44, 0
3, 864, Note_on_c, 2, 43, 96
3, 960, Note_off_c, 2, 43, 0
3, 960, Note_on_c, 2, 49, 96
3, 984, Note_off_c, 2, 49, 0
3, 984, Note_on_c, 2, 46, 96
3, 1176, Note_off_c, 2, 46, 0
3, 1176, Note_on_c, 2, 48, 96
3, 1368, Note_off_c, 2, 48, 0
3, 1368, Note_on_c, 2, 46, 96
3, 1560, Note_off_c, 2, 46, 0
3, 1584, Note_on_c, 2, 53, 96
3, 1680, Note_off_c, 2, 53, 0
3, 1680, Note_on_c, 2, 51, 96
3, 1704, Note_off_c, 2, 51, 0
3, 1728, Note_on_c, 2, 48, 96
3, 1920, Note_off_c, 2, 48, 0
3, 1920, Note_on_c, 2, 55, 96
3, 1944, Note_off_c, 2, 55, 0
3, 1944, Note_on_c, 2, 49, 96
3, 1968, Note_off_c, 2, 49, 0
3, 1992, Note_on_c, 2, 44, 96
3, 2184, Note_off_c, 2, 44, 0
3, 2184, Note_on_c, 2, 43, 96
3, 2208, Note_off_c, 2, 43, 0
3, 2208, Note_on_c, 2, 51, 96
3, 2400, Note_off_c, 2, 51, 0
3, 2400, Note_on_c, 2, 49, 96
3, 2424, Note_off_c, 2, 49, 0
3, 2424, Note_on_c, 2, 51, 96
3, 2520, Note_off_c, 2, 51, 0
3, 2544, Note_on_c, 2, 53, 96
3, 2640, Note_off_c, 2, 53, 0
3, 2640, Note_on_c, 2, 51, 96
3, 2664, Note_off_c, 2, 51, 0
3, 2688, Note_on_c, 2, 48, 96
3, 2712, Note_off_c, 2, 48, 0
3, 2712, Note_on_c, 2, 43, 96
3, 2736, Note_off_c, 2, 43, 0
3, 2736, Note_on_c, 2, 53, 96
3, 2928, Note_off_c, 2, 53, 0
3, 2928, Note_on_c, 2, 51, 96
3, 3024, Note_off_c, 2, 51, 0
3, 3528, Note_on_c, 2, 51, 96
3, 3624, Note_off_c, 2, 51, 0
3, 3624, Note_on_c, 2, 53, 96
3, 3720, Note_off_c, 2, 53, 0
3, 3744, Note_on_c, 2, 48, 96
3, 3840, Note_off_c, 2, 48, 0
3, 3840, Note_on_c, 2, 53, 96
3, 3936, Note_off_c, 2, 53, 0
3, 3936, Note_on_c, 2, 51, 96
3, 4032, Note_off_c, 2, 51, 0
3, 4032, Note_on_c, 2, 53, 96
3, 4056, Note_off_c, 2, 53, 0
3, 4056, Note_on_c, 2, 49, 96
3, 4080, Note_off_c, 2, 49, 0
3, 4080, Note_on_c, 2, 44, 96
3, 4272, Note_off_c, 2, 44, 0
3, 4296, Note_on_c, 2, 43, 96
3, 4392, Note_off_c, 2, 43, 0
3, 4392, Note_on_c, 2, 51, 96
3, 4488, Note_off_c, 2, 51, 0
3, 4512, Note_on_c, 2, 48, 96
3, 4536, Note_off_c, 2, 48, 0
3, 4536, Note_on_c, 2, 49, 96
3, 4560, Note_off_c, 2, 49, 0
3, 4560, Note_on_c, 2, 43, 96
3, 4584, Note_off_c, 2, 43, 0
3, 4584, Note_on_c, 2, 48, 96
3, 4608, Note_off_c, 2, 48, 0
3, 4608, Note_on_c, 2, 48, 96
3, 4704, Note_off_c, 2, 48, 0
3, 4704, Note_on_c, 2, 43, 96
3, 5088, Note_off_c, 2, 43, 0
3, 5112, Note_on_c, 2, 44, 96
3, 5136, Note_off_c, 2, 44, 0
3, 5136, Note_on_c, 2, 48, 96
3, 5232, Note_off_c, 2, 48, 0
3, 5232, Note_on_c, 2, 43, 96
3, 5256, Note_off_c, 2, 43, 0
3, 5256, Note_on_c, 2, 46, 96
3, 5280, Note_off_c, 2, 46, 0
3, 5280, Note_on_c, 2, 46, 96
3, 5376, Note_off_c, 2, 46, 0
3, 5496, Note_on_c, 2, 53, 96
3, 5688, Note_off_c, 2, 53, 0
3, 5688, Note_on_c, 2, 43, 96
3, 5784, Note_off_c, 2, 43, 0
3, 5784, Note_on_c, 2, 48, 96
3, 5976, Note_off_c, 2, 48, 0
3, 5976, Note_on_c, 2, 55, 96
3, 6000, Note_off_c, 2, 55, 0
3, 6024, Note_on_c, 2, 55, 96
3, 6048, Note_off_c, 2, 55, 0
3, 6048, Note_on_c, 2, 53, 96
3, 6144, Note_off_c, 2, 53, 0
3, 6144, Note_on_c, 2, 43, 96
3, 6168, Note_off_c, 2, 43, 0
3, 6168, Note_on_c, 2, 44, 96
3, 6360, Note_off_c, 2, 44, 0
3, 6360, Note_on_c, 2, 46, 96
3, 6552, Note_off_c, 2, 46, 0
3, 6552, Note_on_c, 2, 49, 96
3, 6576, Note_off_c, 2, 49, 0
3, 6600, Note_on_c, 2, 51, 96
3, 6696, Note_off_c, 2, 51, 0
3, 6696, Note_on_c, 2, 53, 96
3, 6792, Note_off_c, 2, 53, 0
3, 6792, Note_on_c, 2, 48, 96
3, 6984, Note_off_c, 2, 48, 0
3, 6984, Note_on_c, 2, 49, 96
3, 7008, Note_off_c, 2, 49, 0
3, 7416, Note_on_c, 2, 46, 96
3, 7440, Note_off_c, 2, 46, 0
3, 7440, Note_on_c, 2, 49, 96
3, 7632, Note_off_c, 2, 49, 0
3, 7632, Note_on_c, 2, 44, 96
3, 7824, Note_off_c, 2, 44, 0
3, 7824, Note_on_c, 2, 46, 96
3, 8016, Note_off_c, 2, 46, 0
3, 8016, Note_on_c, 2, 49, 96
3, 8040, Note_off_c, 2, 49, 0
3, 8064, Note_on_c, 2, 48, 96
3, 8256, Note_off_c, 2, 48, 0
3, 8256, Note_on_c, 2, 55, 96
3, 8280, Note_off_c, 2, 55, 0
3, 8280, Note_on_c, 2, 49, 96
3, 8304, Note_off_c, 2, 49, 0
3, 8328, Note_on_c, 2, 46, 96
3, 8520, Note_off_c, 2, 46, 0
3, 8520, Note_on_c, 2, 53, 96
3, 8616, Note_off_c, 2, 53, 0
3, 8616, Note_on_c, 2, 51, 96
3, 8712, Note_off_c, 2, 51, 0
3, 8712, Note_on_c, 2, 46, 96
3, 8904, Note_off_c, 2, 46, 0
3, 8928, Note_on_c, 2, 53, 96
3, 9024, Note_off_c, 2, 53, 0
3, 9024, Note_on_c, 2, 51, 96
3, 9048, Note_off_c, 2, 51, 0
3, 9072, Note_on_c, 2, 44, 96
3, 9168, Note_off_c, 2, 44, 0
3, 9168, Note_on_c, 2, 53, 96
3, 9264, Note_off_c, 2, 53, 0
3, 9264, Note_on_c, 2, 43, 96
3, 9648, Note_off_c, 2, 43, 0
3, 9864, Note_on_c, 2, 51, 96
3, 9960, Note_off_c, 2, 51, 0
3, 9960, Note_on_c, 2, 53, 96
3, 10056, Note_off_c, 2, 53, 0
3, 10056, Note_on_c, 2, 44, 96
3, 10248, Note_off_c, 2, 44, 0
3, 10272, Note_on_c, 2, 55, 96
3, 10296, Note_off_c, 2, 55, 0
3, 10296, Note_on_c, 2, 43, 96
3, 10392, Note_off_c, 2, 43, 0
3, 10392, Note_on_c, 2, 46, 96
3, 10584, Note_off_c, 2, 46, 0
3, 10608, Note_on_c, 2, 43, 96
3, 10632, Note_off_c, 2, 43, 0
3, 10632, Note_on_c, 2, 46, 96
3, 10656, Note_off_c, 2, 46, 0
3, 10656, Note_on_c, 2, 46, 96
3, 10680, Note_off_c, 2, 46, 0
3, 10680, Note_on_c, 2, 49, 96
3, 10704, Note_off_c, 2, 49, 0
3, 10704, Note_on_c, 2, 55, 96
3, 10800, Note_off_c, 2, 55, 0
3, 10800, Note_on_c, 2, 48, 96
3, 10992, Note_off_c, 2, 48, 0
3, 10992, Note_on_c, 2, 49, 96
3, 11016, Note_off_c, 2, 49, 0
3, 11016, Note_on_c, 2, 48, 96
3, 11040, Note_off_c, 2, 48, 0
3, 11448, Note_on_c, 2, 44, 96
3, 11472, Note_off_c, 2, 44, 0
3, 11472, Note_on_c, 2, 44, 96
3, 11664, Note_off_c, 2, 44, 0
3, 11664, Note_on_c, 2, 49, 96
3, 11688, Note_off_c, 2, 49, 0
3, 11688, Note_on_c, 2, 48, 96
3, 11880, Note_off_c, 2, 48, 0
3, 11880, Note_on_c, 2, 55, 96
3, 11904, Note_off_c, 2, 55, 0
3, 11904, Note_on_c, 2, 44, 96
3, 12096, Note_off_c, 2, 44, 0
3, 12096, Note_on_c, 2, 49, 96
3, 12120, Note_off_c, 2, 49, 0
3, 12120, Note_on_c, 2, 51, 96
3, 12216, Note_off_c, 2, 51, 0
3, 12336, Note_on_c, 2, 53, 96
3, 12528, Note_off_c, 2, 53, 0
3, 12528, Note_on_c, 2, 55, 96
3, 12552, Note_off_c, 2, 55, 0
3, 12552, Note_on_c, 2, 53, 96
3, 12648, Note_off_c, 2, 53, 0
3, 12648, Note_on_c, 2, 49, 96
3, 12744, Note_off_c, 2, 49, 0
3, 12864, Note_on_c, 2, 48, 96
3, 13056, Note_off_c, 2, 48, 0
3, 13056, Note_on_c, 2, 43, 96
3, 13440, Note_off_c, 2, 43, 0
3, 13440, Note_on_c, 2, 44, 96
3, 13632, Note_off_c, 2, 44, 0
3, 13632, Note_on_c, 2, 43, 96
3, 13656, Note_off_c, 2, 43, 0
3, 13656, Note_on_c, 2, 51, 96
3, 13752, Note_off_c, 2, 51, 0
3, 13752, Note_on_c, 2, 48, 96
3, 13944, Note_off_c, 2, 48, 0
3, 14064, Note_on_c, 2, 55, 96
3, 14088, Note_off_c, 2, 55, 0
3, 14088, Note_on_c, 2, 49, 96
3, 14112, Note_off_c, 2, 49, 0
3, 14136, Note_on_c, 2, 46, 96
3, 14160, Note_off_c, 2, 46, 0
3, 14160, Note_on_c, 2, 43, 96
3, 14184, Note_off_c, 2, 43, 0
3, 14184, Note_on_c, 2, 48, 96
3, 14280, Note_off_c, 2, 48, 0
3, 14280, Note_on_c, 2, 48, 96
3, 14376, Note_off_c, 2, 48, 0
3, 14376, Note_on_c, 2, 46, 96
3, 14568, Note_off_c, 2, 46, 0
3, 14592, Note_on_c, 2, 51, 96
3, 14616, Note_off_c, 2, 51, 0
3, 14616, Note_on_c, 2, 44, 96
3, 14808, Note_off_c, 2, 44, 0
3, 14808, Note_on_c, 2, 49, 96
3, 14832, Note_off_c, 2, 49, 0
3, 14832, Note_on_c, 2, 49, 96
3, 14856, Note_off_c, 2, 49, 0
3, 14880, Note_on_c, 2, 48, 96
3, 14976, Note_off_c, 2, 48, 0
3, 14976, Note_on_c, 2, 43, 96
3, 15000, Note_off_c, 2, 43, 0
3, 15000, Note_on_c, 2, 43, 96
3, 15384, Note_off_c, 2, 43, 0
3, 15408, Note_on_c, 2, 48, 96
3, 15600, Note_off_c, 2, 48, 0
3, 15600, Note_on_c, 2, 55, 96
3, 15624, Note_off_c, 2, 55, 0
3, 15624, Note_on_c, 2, 49, 96
3, 15648, Note_off_c, 2, 49, 0
3, 16056, Note_on_c, 2, 44, 96
3, 16080, Note_off_c, 2, 44, 0
3, 16080, Note_on_c, 2, 53, 96
3, 16176, Note_off_c, 2, 53, 0
3, 16176, Note_on_c, 2, 49, 96
3, 16368, Note_off_c, 2, 49, 0
3, 16368, Note_on_c, 2, 51, 96
3, 16464, Note_off_c, 2, 51, 0
3, 16464, Note_on_c, 2, 48, 96
3, 16488, Note_off_c, 2, 48, 0
3, 16512, Note_on_c, 2, 53, 96
3, 16608, Note_off_c, 2, 53, 0
3, 16608, Note_on_c, 2, 44, 96
3, 16800, Note_off_c, 2, 44, 0
3, 16824, Note_on_c, 2, 44, 96
3, 16848, Note_off_c, 2, 44, 0
3, 16848, Note_on_c, 2, 49, 96
3, 17040, Note_off_c, 2, 49, 0
3, 17040, Note_on_c, 2, 43, 96
3, 17136, Note_off_c, 2, 43, 0
3, 17136, Note_on_c, 2, 48, 96
3, 17232, Note_off_c, 2, 48, 0
3, 17232, Note_on_c, 2, 48, 96
3, 17256, Note_off_c, 2, 48, 0
3, 17280, Note_on_c, 2, 48, 96
3, 17472, Note_off_c, 2, 48, 0
3, 17472, Note_on_c, 2, 55, 96
3, 17496, Note_off_c, 2, 55, 0
3, 17496, Note_on_c, 2, 49, 96
3, 17520, Note_off_c, 2, 49, 0
3, 17544, Note_on_c, 2, 44, 96
3, 17736, Note_off_c, 2, 44, 0
3, 17736, Note_on_c, 2, 53, 96
3, 17832, Note_off_c, 2, 53, 0
3, 17832, Note_on_c, 2, 53, 96
3, 17928, Note_off_c, 2, 53, 0
3, 17928, Note_on_c, 2, 51, 96
3, 17952, Note_off_c, 2, 51, 0
3, 18168, Note_on_c, 2, 51, 96
3, 18264, Note_off_c, 2, 51, 0
3, 18264, Note_on_c, 2, 53, 96
3, 18360, Note_off_c, 2, 53, 0
3, 18360, Note_on_c, 2, 44, 96
3, 18552, Note_off_c, 2, 44, 0
3, 18576, Note_on_c, 2, 55, 96
3, 18672, Note_off_c, 2, 55, 0
3, 18672, Note_on_c, 2, 43, 96
3, 18696, Note_off_c, 2, 43, 0
3, 18696, Note_on_c, 2, 48, 96
3, 18792, Note_off_c, 2, 48, 0
3, 18792, Note_on_c, 2, 49, 96
3, 18816, Note_off_c, 2, 49, 0
3, 18840, Note_on_c, 2, 44, 96
3, 19032, Note_off_c, 2, 44, 0
3, 19032, Note_on_c, 2, 49, 96
3, 19056, Note_off_c, 2, 49, 0
3, 19056, Note_on_c, 2, 48, 96
3, 19152, Note_off_c, 2, 48, 0
3, 19152, Note_on_c, 2, 43, 96
3, 19248, Note_off_c, 2, 43, 0
3, 19248, Note_on_c, 2, 53, 96
3, 19272, Note_off_c, 2, 53, 0
3, 19272, Note_on_c, 2, 43, 96
3, 19368, Note_off_c, 2, 43, 0
3, 19368, Note_on_c, 2, 53, 96
3, 19464, Note_off_c, 2, 53, 0
3, 19464, Note_on_c, 2, 49, 96
3, 19656, Note_off_c, 2, 49, 0
3, 19656, Note_on_c, 2, 46, 96
3, 19848, Note_off_c, 2, 46, 0
3, 20256, Note_on_c, 2, 48, 96
3, 20352, Note_off_c, 2, 48, 0
3, 20352, Note_on_c, 2, 49, 96
3, 20376, Note_off_c, 2, 49, 0
3, 20376, Note_on_c, 2, 48, 96
3, 20568, Note_off_c, 2, 48, 0
3, 20568, Note_on_c, 2, 46, 96
3, 20592, Note_off_c, 2, 46, 0
3, 20592, Note_on_c, 2, 55, 96
3, 20616, Note_off_c, 2, 55, 0
3, 20616, Note_on_c, 2, 49, 96
3, 20640, Note_off_c, 2, 49, 0
3, 20640, Note_on_c, 2, 44, 96
3, 20832, Note_off_c, 2, 44, 0
3, 20832, Note_on_c, 2, 43, 96
3, 21216, Note_off_c, 2, 43, 0
3, 21240, Note_on_c, 2, 46, 96
3, 21264, Note_off_c, 2, 46, 0
3, 21264, Note_on_c, 2, 43, 96
3, 21288, Note_off_c, 2, 43, 0
3, 21288, Note_on_c, 2, 48, 96
3, 21384, Note_off_c, 2, 48, 0
3, 21384, Note_on_c, 2, 48, 96
3, 21480, Note_off_c, 2, 48, 0
3, 21504, Note_on_c, 2, 48, 96
3, 21696, Note_off_c, 2, 48, 0
3, 21696, Note_on_c, 2, 55, 96
3, 21720, Note_off_c, 2, 55, 0
3, 21720, Note_on_c, 2, 43, 96
3, 21744, Note_off_c, 2, 43, 0
3, 21744, Note_on_c, 2, 48, 96
3, 21936, Note_off_c, 2, 48, 0
3, 21960, Note_on_c, 2, 51, 96
3, 22152, Note_off_c, 2, 51, 0
3, 22152, Note_on_c, 2, 43, 96
3, 22248, Note_off_c, 2, 43, 0
3, 22248, Note_on_c, 2, 44, 96
3, 22440, Note_off_c, 2, 44, 0
3, 22440, Note_on_c, 2, 53, 96
3, 22464, Note_off_c, 2, 53, 0
3, 22464, Note_on_c, 2, 43, 96
3, 22560, Note_off_c, 2, 43, 0
3, 22560, Note_on_c, 2, 51, 96
3, 22656, Note_off_c, 2, 51, 0
3, 22656, Note_on_c, 2, 43, 96
3, 22752, Note_off_c, 2, 43, 0
3, 22752, Note_on_c, 2, 48, 96
3, 22944, Note_off_c, 2, 48, 0
3, 22944, Note_on_c, 2, 43, 96
3, 23328, Note_off_c, 2, 43, 0
3, 23448, Note_on_c, 2, 48, 96
3, 23640, Note_off_c, 2, 48, 0
3, 23640, Note_on_c, 2, 55, 96
3, 23664, Note_off_c, 2, 55, 0
3, 23664, Note_on_c, 2, 43, 96
3, 23688, Note_off_c, 2, 43, 0
3, 23688, Note_on_c, 2, 48, 96
3, 23880, Note_off_c, 2, 48, 0
3, 23904, Note_on_c, 2, 53, 96
3, 24096, Note_off_c, 2, 53, 0
3, 24096, Note_on_c, 2, 43, 96
3, 24192, Note_off_c, 2, 43, 0
3, 24192, Note_on_c, 2, 46, 96
3, 24384, Note_off_c, 2, 46, 0
3, 24384, Note_on_c, 2, 55, 96
3, 24408, Note_off_c, 2, 55, 0
3, 24408, Note_on_c, 2, 49, 96
3, 24432, Note_off_c, 2, 49, 0
3, 24432, Note_on_c, 2, 46, 96
3, 24624, Note_off_c, 2, 46, 0
3, 25032, Note_on_c, 2, 44, 96
3, 25056, Note_off_c, 2, 44, 0
3, 25056, Note_on_c, 2, 49, 96
3, 25248, Note_off_c, 2, 49, 0
3, 25248, Note_on_c, 2, 48, 96
3, 25440, Note_off_c, 2, 48, 0
3, 25464, Note_on_c, 2, 43, 96
3, 25488, Note_off_c, 2, 43, 0
3, 25488, Note_on_c, 2, 46, 96
3, 25512, Note_off_c, 2, 46, 0
3, 25512, Note_on_c, 2, 48, 96
3, 25704, Note_off_c, 2, 48, 0
3, 25704, Note_on_c, 2, 46, 96
3, 25896, Note_off_c, 2, 46, 0
3, 25920, Note_on_c, 2, 51, 96
3, 26016, Note_off_c, 2, 51, 0
3, 26016, Note_on_c, 2, 53, 96
3, 26112, Note_off_c, 2, 53, 0
3, 26112, Note_on_c, 2, 48, 96
3, 26304, Note_off_c, 2, 48, 0
3, 27288, Note_on_c, 2, 51, 96
3, 27312, Note_off_c, 2, 51, 0
3, 27312, Note_on_c, 2, 53, 96
3, 27408, Note_off_c, 2, 53, 0
3, 27408, Note_on_c, 2, 44, 96
3, 27600, Note_off_c, 2, 44, 0
3, 27624, Note_on_c, 2, 49, 96
3, 27648, Note_off_c, 2, 49, 0
3, 27648, Note_on_c, 2, 51, 96
3, 27840, Note_off_c, 2, 51, 0
3, 27840, Note_on_c, 2, 49, 96
3, 27864, Note_off_c, 2, 49, 0
3, 27864, Note_on_c, 2, 44, 96
3, 28056, Note_off_c, 2, 44, 0
3, 28056, Note_on_c, 2, 43, 96
3, 28440, Note_off_c, 2, 43, 0
3, 28464, Note_on_c, 2, 48, 96
3, 28656, Note_off_c, 2, 48, 0
3, 28656, Note_on_c, 2, 55, 96
3, 28680, Note_off_c, 2, 55, 0
3, 28680, Note_on_c, 2, 43, 96
3, 28776, Note_off_c, 2, 43, 0
3, 28776, Note_on_c, 2, 51, 96
3, 28872, Note_off_c, 2, 51, 0
3, 28872, Note_on_c, 2, 53, 96
3, 28896, Note_off_c, 2, 53, 0
3, 28920, Note_on_c, 2, 48, 96
3, 29112, Note_off_c, 2, 48, 0
3, 29112, Note_on_c, 2, 55, 96
3, 29136, Note_off_c, 2, 55, 0
3, 29136, Note_on_c, 2, 43, 96
3, 29160, Note_off_c, 2, 43, 0
3, 29160, Note_on_c, 2, 48, 96
3, 29352, Note_off_c, 2, 48, 0
3, 29376, Note_on_c, 2, 48, 96
3, 29472, Note_off_c, 2, 48, 0
3, 29472, Note_on_c, 2, 43, 96
3, 29568, Note_off_c, 2, 43, 0
3, 29568, Note_on_c, 2, 51, 96
3, 29760, Note_off_c, 2, 51, 0
3, 29760, Note_on_c, 2, 49, 96
3, 29784, Note_off_c, 2, 49, 0
3, 29784, Note_on_c, 2, 46, 96
3, 29976, Note_off_c, 2, 46, 0
3, 30000, Note_on_c, 2, 43, 96
3, 30096, Note_off_c, 2, 43, 0
3, 30096, Note_on_c, 2, 46, 96
3, 30288, Note_off_c, 2, 46, 0
3, 30312, Note_on_c, 2, 55, 96
3, 30336, Note_off_c, 2, 55, 0
3, 30336, Note_on_c, 2, 53, 96
3, 30432, Note_off_c, 2, 53, 0
3, 30432, Note_on_c, 2, 48, 96
3, 30528, Note_off_c, 2, 48, 0
3, 30528, Note_on_c, 2, 43, 96
3, 30912, Note_off_c, 2, 43, 0
3, 31488, Note_on_c, 2, 48, 96
3, 31584, Note_off_c, 2, 48, 0
3, 31584, Note_on_c, 2, 49, 96
3, 31608, Note_off_c, 2, 49, 0
3, 31608, Note_on_c, 2, 48, 96
3, 31800, Note_off_c, 2, 48, 0
3, 31824, Note_on_c, 2, 48, 96
3, 32016, Note_off_c, 2, 48, 0
3, 32016, Note_on_c, 2, 55, 96
3, 32040, Note_off_c, 2, 55, 0
3, 32040, Note_on_c, 2, 49, 96
3, 32064, Note_off_c, 2, 49, 0
3, 32088, Note_on_c, 2, 55, 96
3, 32184, Note_off_c, 2, 55, 0
3, 32184, Note_on_c, 2, 44, 96
3, 32376, Note_off_c, 2, 44, 0
3, 32376, Note_on_c, 2, 43, 96
3, 32472, Note_off_c, 2, 43, 0
3, 32472, Note_on_c, 2, 49, 96
3, 32496, Note_off_c, 2, 49, 0
3, 32496, Note_on_c, 2, 46, 96
3, 32688, Note_off_c, 2, 46, 0
3, 32688, Note_on_c, 2, 48, 96
3, 32880, Note_off_c, 2, 48, 0
3, 32880, Note_on_c, 2, 46, 96
3, 33072, Note_off_c, 2, 46, 0
3, 33096, Note_on_c, 2, 53, 96
3, 33192, Note_off_c, 2, 53, 0
3, 33192, Note_on_c, 2, 51, 96
3, 33216, Note_off_c, 2, 51, 0
3, 33240, Note_on_c, 2, 48, 96
3, 33432, Note_off_c, 2, 48, 0
3, 33432, Note_on_c, 2, 55, 96
3, 33456, Note_off_c, 2, 55, 0
3, 33456, Note_on_c, 2, 49, 96
3, 33480, Note_off_c, 2, 49, 0
3, 33504, Note_on_c, 2, 44, 96
3, 33696, Note_off_c, 2, 44, 0
3, 33696, Note_on_c, 2, 43, 96
3, 33720, Note_off_c, 2, 43, 0
3, 33720, Note_on_c, 2, 51, 96
3, 33912, Note_off_c, 2, 51, 0
3, 33912, Note_on_c, 2, 49, 96
3, 33936, Note_off_c, 2, 49, 0
3, 33936, Note_on_c, 2, 51, 96
3, 34032, Note_off_c, 2, 51, 0
3, 34056, Note_on_c, 2, 53, 96
3, 34152, Note_off_c, 2, 53, 0
3, 34152, Note_on_c, 2, 51, 96
3, 34176, Note_off_c, 2, 51, 0
3, 34200, Note_on_c, 2, 48, 96
3, 34224, Note_off_c, 2, 48, 0
3, 34224, Note_on_c, 2, 43, 96
3, 34248, Note_off_c, 2, 43, 0
3, 34248, Note_on_c, 2, 53, 96
3, 34440, Note_off_c, 2, 53, 0
3, 34440, Note_on_c, 2, 51, 96
3, 34536, Note_off_c, 2, 51, 0
3, 35040, Note_on_c, 2, 51, 96
3, 35136, Note_off_c, 2, 51, 0
3, 35136, Note_on_c, 2, 53, 96
3, 35232, Note_off_c, 2, 53, 0
3, 35256, Note_on_c, 2, 48, 96
3, 35352, Note_off_c, 2, 48, 0
3, 35352, Note_on_c, 2, 53, 96
3, 35448, Note_off_c, 2, 53, 0
3, 35448, Note_on_c, 2, 51, 96
3, 35544, Note_off_c, 2, 51, 0
3, 35544, Note_on_c, 2, 53, 96
3, 35568, Note_off_c, 2, 53, 0
3, 35568, Note_on_c, 2, 49, 96
3, 35592, Note_off_c, 2, 49, 0
3, 35592, Note_on_c, 2, 44, 96
3, 35784, Note_off_c, 2, 44, 0
3, 35808, Note_on_c, 2, 43, 96
3, 35904, Note_off_c, 2, 43, 0
3, 35904, Note_on_c, 2, 51, 96
3, 36000, Note_off_c, 2, 51, 0
3, 36024, Note_on_c, 2, 48, 96
3, 36048, Note_off_c, 2, 48, 0
3, 36048, Note_on_c, 2, 49, 96
3, 36072, Note_off_c, 2, 49, 0
3, 36072, Note_on_c, 2, 43, 96
3, 36096, Note_off_c, 2, 43, 0
3, 36096, Note_on_c, 2, 48, 96
3, 36120, Note_off_c, 2, 48, 0
3, 36120, Note_on_c, 2, 48, 96
3, 36216, Note_off_c, 2, 48, 0
3, 36216, Note_on_c, 2, 43, 96
3, 36600, Note_off_c, 2, 43, 0
3, 36624, Note_on_c, 2, 44, 96
3, 36648, Note_off_c, 2, 44, 0
3, 36648, Note_on_c, 2, 48, 96
3, 36744, Note_off_c, 2, 48, 0
3, 36744, Note_on_c, 2, 43, 96
3, 36768, Note_off_c, 2, 43, 0
3, 36768, Note_on_c, 2, 46, 96
3, 36792, Note_off_c, 2, 46, 0
3, 36792, Note_on_c, 2, 46, 96
3, 36888, Note_off_c, 2, 46, 0
3, 37008, Note_on_c, 2, 53, 96
3, 37200, Note_off_c, 2, 53, 0
3, 37200, Note_on_c, 2, 43, 96
3, 37296, Note_off_c, 2, 43, 0
3, 37296, Note_on_c, 2, 48, 96
3, 37488, Note_off_c, 2, 48, 0
3, 37488, Note_on_c, 2, 55, 96
3, 37512, Note_off_c, 2, 55, 0
3, 37536, Note_on_c, 2, 55, 96
3, 37560, Note_off_c, 2, 55, 0
3, 37560, Note_on_c, 2, 53, 96
3, 37656, Note_off_c, 2, 53, 0
3, 37656, Note_on_c, 2, 43, 96
3, 37680, Note_off_c, 2, 43, 0
3, 37680, Note_on_c, 2, 44, 96
3, 37872, Note_off_c, 2, 44, 0
3, 37872, Note_on_c, 2, 46, 96
3, 38064, Note_off_c, 2, 46, 0
3, 38064, Note_on_c, 2, 49, 96
3, 38088, Note_off_c, 2, 49, 0
3, 38112, Note_on_c, 2, 51, 96
3, 38208, Note_off_c, 2, 51, 0
3, 38208, Note_on_c, 2, 53, 96
3, 38304, Note_off_c, 2, 53, 0
3, 38304, Note_on_c, 2, 48, 96
3, 38496, Note_off_c, 2, 48, 0
3, 38496, Note_on_c, 2, 49, 96
3, 38520, Note_off_c, 2, 49, 0
3, 38928, Note_on_c, 2, 46, 96
3, 38952, Note_off_c, 2, 46, 0
3, 38952, Note_on_c, 2, 49, 96
3, 39144, Note_off_c, 2, 49, 0
3, 39144, Note_on_c, 2, 44, 96
3, 39336, Note_off_c, 2, 44, 0
3, 39336, Note_on_c, 2, 46, 96
3, 39528, Note_off_c, 2, 46, 0
3, 39528, Note_on_c, 2, 49, 96
3, 39552, Note_off_c, 2, 49, 0
3, 39576, Note_on_c, 2, 48, 96
3, 39768, Note_off_c, 2, 48, 0
3, 39768, Note_on_c, 2, 55, 96
3, 39792, Note_off_c, 2, 55, 0
3, 39792, Note_on_c, 2, 49, 96
3, 39816, Note_off_c, 2, 49, 0
3, 39840, Note_on_c, 2, 46, 96
3, 40032, Note_off_c, 2, 46, 0
3, 40032, Note_on_c, 2, 53, 96
3, 40128, Note_off_c, 2, 53, 0
3, 40128, Note_on_c, 2, 51, 96
3, 40224, Note_off_c, 2, 51, 0
3, 40224, Note_on_c, 2, 46, 96
3, 40416, Note_off_c, 2, 46, 0
3, 40440, Note_on_c, 2, 53, 96
3, 40536, Note_off_c, 2, 53, 0
3, 40536, Note_on_c, 2, 51, 96
3, 40560, Note_off_c, 2, 51, 0
3, 40584, Note_on_c, 2, 44, 96
3, 40680, Note_off_c, 2, 44, 0
3, 40680, Note_on_c, 2, 53, 96
3, 40776, Note_off_c, 2, 53, 0
3, 40776, Note_on_c, 2, 43, 96
3, 41160, Note_off_c, 2, 43, 0
3, 41376, Note_on_c, 2, 51, 96
3, 41472, Note_off_c, 2, 51, 0
3, 41472, Note_on_c, 2, 53, 96
3, 41568, Note_off_c, 2, 53, 0
3, 41568, Note_on_c, 2, 44, 96
3, 41760, Note_off_c, 2, 44, 0
3, 41784, Note_on_c, 2, 55, 96
3, 41808, Note_off_c, 2, 55, 0
3, 41808, Note_on_c, 2, 43, 96
3, 41904, Note_off_c, 2, 43, 0
3, 41904, Note_on_c, 2, 46, 96
3, 42096, Note_off_c, 2, 46, 0
3, 42120, Note_on_c, 2, 43, 96
3, 42144, Note_off_c, 2, 43, 0
3, 42144, Note_on_c, 2, 46, 96
3, 42168, Note_off_c, 2, 46, 0
3, 42168, Note_on_c, 2, 46, 96
3, 42192, Note_off_c, 2, 46, 0
3, 42192, Note_on_c, 2, 49, 96
3, 42216, Note_off_c, 2, 49, 0
3, 42216, Note_on_c, 2, 55, 96
3, 42312, Note_off_c, 2, 55, 0
3, 42312, Note_on_c, 2, 48, 96
3, 42504, Note_off_c, 2, 48, 0
3, 42504, Note_on_c, 2, 49, 96
3, 42528, Note_off_c, 2, 49, 0
3, 42528, Note_on_c, 2, 48, 96
3, 42552, Note_off_c, 2, 48, 0
3, 42960, Note_on_c, 2, 44, 96
3, 42984, Note_off_c, 2, 44, 0
3, 42984, Note_on_c, 2, 44, 96
3, 43176, Note_off_c, 2, 44, 0
3, 43176, Note_on_c, 2, 49, 96
3, 43200, Note_off_c, 2, 49, 0
3, 43200, Note_on_c, 2, 48, 96
3, 43392, Note_off_c, 2, 48, 0
3, 43392, Note_on_c, 2, 55, 96
3, 43416, Note_off_c, 2, 55, 0
3, 43416, Note_on_c, 2, 44, 96
3, 43608, Note_off_c, 2, 44, 0
3, 43608, Note_on_c, 2, 49, 96
3, 43632, Note_off_c, 2, 49, 0
3, 43632, Note_on_c, 2, 51, 96
3, 43728, Note_off_c, 2, 51, 0
3, 43848, Note_on_c, 2, 53, 96
3, 44040, Note_off_c, 2, 53, 0
3, 44040, Note_on_c, 2, 55, 96
3, 44064, Note_off_c, 2, 55, 0
3, 44064, Note_on_c, 2, 53, 96
3, 44160, Note_off_c, 2, 53, 0
3, 44160, Note_on_c, 2, 49, 96
3, 44256, Note_off_c, 2, 49, 0
3, 44376, Note_on_c, 2, 48, 96
3, 44568, Note_off_c, 2, 48, 0
3, 44568, Note_on_c, 2, 43, 96
3, 44952, Note_off_c, 2, 43, 0
3, 44952, Note_on_c, 2, 44, 96
3, 45144, Note_off_c, 2, 44, 0
3, 45144, Note_on_c, 2, 43, 96
3, 45168, Note_off_c, 2, 43, 0
3, 45168, Note_on_c, 2, 51, 96
3, 45264, Note_off_c, 2, 51, 0
3, 45264, Note_on_c, 2, 48, 96
3, 45456, Note_off_c, 2, 48, 0
3, 45576, Note_on_c, 2, 55, 96
3, 45600, Note_off_c, 2, 55, 0
3, 45600, Note_on_c, 2, 49, 96
3, 45624, Note_off_c, 2, 49, 0
3, 45648, Note_on_c, 2, 46, 96
3, 45672, Note_off_c, 2, 46, 0
3, 45672, Note_on_c, 2, 43, 96
3, 45696, Note_off_c, 2, 43, 0
3, 45696, Note_on_c, 2, 48, 96
3, 45792, Note_off_c, 2, 48, 0
3, 45792, Note_on_c, 2, 48, 96
3, 45888, Note_off_c, 2, 48, 0
3, 45888, Note_on_c, 2, 46, 96
3, 46080, Note_off_c, 2, 46, 0
3, 46104, Note_on_c, 2, 51, 96
3, 46128, Note_off_c, 2, 51, 0
3, 46128, Note_on_c, 2, 44, 96
3, 46320, Note_off_c, 2, 44, 0
3, 46320, Note_on_c, 2, 49, 96
3, 46344, Note_off_c, 2, 49, 0
3, 46344, Note_on_c, 2, 49, 96
3, 46368, Note_off_c, 2, 49, 0
3, 46392, Note_on_c, 2, 48, 96
3, 46488, Note_off_c, 2, 48, 0
3, 46488, Note_on_c, 2, 43, 96
3, 46512, Note_off_c, 2, 43, 0
3, 46512, Note_on_c, 2, 43, 96
3, 46896, Note_off_c, 2, 43, 0
3, 46920, Note_on_c, 2, 48, 96
3, 47112, Note_off_c, 2, 48, 0
3, 47112, Note_on_c, 2, 55, 96
3, 47136, Note_off_c, 2, 55, 0
3, 47136, Note_on_c, 2, 49, 96
3, 47160, Note_off_c, 2, 49, 0
3, 47568, Note_on_c, 2, 44, 96
3, 47592, Note_off_c, 2, 44, 0
3, 47592, Note_on_c, 2, 53, 96
3, 47688, Note_off_c, 2, 53, 0
3, 47688, Note_on_c, 2, 49, 96
3, 47880, Note_off_c, 2, 49, 0
3, 47880, Note_on_c, 2, 51, 96
3, 47976, Note_off_c, 2, 51, 0
3, 47976, Note_on_c, 2, 48, 96
3, 48000, Note_off_c, 2, 48, 0
3, 48024, Note_on_c, 2, 53, 96
3, 48120, Note_off_c, 2, 53, 0
3, 48120, Note_on_c, 2, 44, 96
3, 48312, Note_off_c, 2, 44, 0
3, 48336, Note_on_c, 2, 44, 96
3, 48360, Note_off_c, 2, 44, 0
3, 48360, Note_on_c, 2, 49, 96
3, 48552, Note_off_c, 2, 49, 0
3, 48552, Note_on_c, 2, 43, 96
3, 48648, Note_off_c, 2, 43, 0
3, 48648, Note_on_c, 2, 48, 96
3, 48744, Note_off_c, 2, 48, 0
3, 48744, Note_on_c, 2, 48, 96
3, 48768, Note_off_c, 2, 48, 0
3, 48792, Note_on_c, 2, 48, 96
3, 48984, Note_off_c, 2, 48, 0
3, 48984, Note_on_c, 2, 55, 96
3, 49008, Note_off_c, 2, 55, 0
3, 49008, Note_on_c, 2, 49, 96
3, 49032, Note_off_c, 2, 49, 0
3, 49056, Note_on_c, 2, 44, 96
3, 49248, Note_off_c, 2, 44, 0
3, 49248, Note_on_c, 2, 53, 96
3, 49344, Note_off_c, 2, 53, 0
3, 49344, Note_on_c, 2, 53, 96
3, 49440, Note_off_c, 2, 53, 0
3, 49440, Note_on_c, 2, 51, 96
3, 49464, Note_off_c, 2, 51, 0
3, 49680, Note_on_c, 2, 51, 96
3, 49776, Note_off_c, 2, 51, 0
3, 49776, Note_on_c, 2, 53, 96
3, 49872, Note_off_c, 2, 53, 0
3, 49872, Note_on_c, 2, 44, 96
3, 50064, Note_off_c, 2, 44, 0
3, 50088, Note_on_c, 2, 55, 96
3, 50184, Note_off_c, 2, 55, 0
3, 50184, Note_on_c, 2, 43, 96
3, 50208, Note_off_c, 2, 43, 0
3, 50208, Note_on_c, 2, 48, 96
3, 50304, Note_off_c, 2, 48, 0
3, 50304, Note_on_c, 2, 49, 96
3, 50328, Note_off_c, 2, 49, 0
3, 50352, Note_on_c, 2, 44, 96
3, 50544, Note_off_c, 2, 44, 0
3, 50544, Note_on_c, 2, 49, 96
3, 50568, Note_off_c, 2, 49, 0
3, 50568, Note_on_c, 2, 48, 96
3, 50664, Note_off_c, 2, 48, 0
3, 50664, Note_on_c, 2, 43, 96
3, 50760, Note_off_c, 2, 43, 0
3, 50760, Note_on_c, 2, 53, 96
3, 50784, Note_off_c, 2, 53, 0
3, 50784, Note_on_c, 2, 43, 96
3, 50880, Note_off_c, 2, 43, 0
3, 50880, Note_on_c, 2, 53, 96
3, 50976, Note_off_c, 2, 53, 0
3, 50976, Note_on_c, 2, 49, 96
3, 51168, Note_off_c, 2, 49, 0
3, 51168, Note_on_c, 2, 46, 96
3, 51360, Note_off_c, 2, 46, 0
3, 51768, Note_on_c, 2, 48, 96
3, 51864, Note_off_c, 2, 48, 0
3, 51864, Note_on_c, 2, 49, 96
3, 51888, Note_off_c, 2, 49, 0
3, 51888, Note_on_c, 2, 48, 96
3, 52080, Note_off_c, 2, 48, 0
3, 52080, Note_on_c, 2, 46, 96
3, 52104, Note_off_c, 2, 46, 0
3, 52104, Note_on_c, 2, 55, 96
3, 52128, Note_off_c, 2, 55, 0
3, 52128, Note_on_c, 2, 49, 96
3, 52152, Note_off_c, 2, 49, 0
3, 52152, Note_on_c, 2, 44, 96
3, 52344, Note_off_c, 2, 44, 0
3, 52344, Note_on_c, 2, 43, 96
3, 52728, Note_off_c, 2, 43, 0
3, 52752, Note_on_c, 2, 46, 96
3, 52776, Note_off_c, 2, 46, 0
3, 52776, Note_on_c, 2, 43, 96
3, 52800, Note_off_c, 2, 43, 0
3, 52800, Note_on_c, 2, 48, 96
3, 52896, Note_off_c, 2, 48, 0
3, 52896, Note_on_c, 2, 48, 96
3, 52992, Note_off_c, 2, 48, 0
3, 53016, Note_on_c, 2, 48, 96
3, 53208, Note_off_c, 2, 48, 0
3, 53208, Note_on_c, 2, 55, 96
3, 53232, Note_off_c, 2, 55, 0
3, 53232, Note_on_c, 2, 43, 96
3, 53256, Note_off_c, 2, 43, 0
3, 53256, Note_on_c, 2, 48, 96
3, 53448, Note_off_c, 2, 48, 0
3, 53472, Note_on_c, 2, 51, 96
3, 53664, Note_off_c, 2, 51, 0
3, 53664, Note_on_c, 2, 43, 96
3, 53760, Note_off_c, 2, 43, 0
3, 53760, Note_on_c, 2, 44, 96
3, 53952, Note_off_c, 2, 44, 0
3, 53952, Note_on_c, 2, 53, 96
3, 53976, Note_off_c, 2, 53, 0
3, 53976, Note_on_c, 2, 43, 96
3, 54072, Note_off_c, 2, 43, 0
3, 54072, Note_on_c, 2, 51, 96
3, 54168, Note_off_c, 2, 51, 0
3, 54168, Note_on_c, 2, 43, 96
3, 54264, Note_off_c, 2, 43, 0
3, 54264, Note_on_c, 2, 48, 96
3, 54456, Note_off_c, 2, 48, 0
3, 54456, Note_on_c, 2, 43, 96
3, 54840, Note_off_c, 2, 43, 0
3, 54960, Note_on_c, 2, 48, 96
3, 55152, Note_off_c, 2, 48, 0
3, 55152, Note_on_c, 2, 55, 96
3, 55176, Note_off_c, 2, 55, 0
3, 55176, Note_on_c, 2, 43, 96
3, 55200, Note_off_c, 2, 43, 0
3, 55200, Note_on_c, 2, 48, 96
3, 55392, Note_off_c, 2, 48, 0
3, 55416, Note_on_c, 2, 53, 96
3, 55608, Note_off_c, 2, 53, 0
3, 55608, Note_on_c, 2, 43, 96
3, 55704, Note_off_c, 2, 43, 0
3, 55704, Note_on_c, 2, 46, 96
3, 55896, Note_off_c, 2, 46, 0
3, 55896, Note_on_c, 2, 55, 96
3, 55920, Note_off_c, 2, 55, 0
3, 55920, Note_on_c, 2, 49, 96
3, 55944, Note_off_c, 2, 49, 0
3, 55944, Note_on_c, 2, 46, 96
3, 56136, Note_off_c, 2, 46, 0
3, 56544, Note_on_c, 2, 44, 96
3, 56568, Note_off_c, 2, 44, 0
3, 56568, Note_on_c, 2, 49, 96
3, 56760, Note_off_c, 2, 49, 0
3, 56760, Note_on_c, 2, 48, 96
3, 56952, Note_off_c, 2, 48, 0
3, 56976, Note_on_c, 2, 43, 96
3, 57000, Note_off_c, 2, 43, 0
3, 57000, Note_on_c, 2, 46, 96
3, 57024, Note_off_c, 2, 46, 0
3, 57024, Note_on_c, 2, 48, 96
3, 57216, Note_off_c, 2, 48, 0
3, 57216, Note_on_c, 2, 46, 96
3, 57408, Note_off_c, 2, 46, 0
3, 57432, Note_on_c, 2, 51, 96
3, 57528, Note_off_c, 2, 51, 0
3, 57528, Note_on_c, 2, 53, 96
3, 57624, Note_off_c, 2, 53, 0
3, 57624, Note_on_c, 2, 48, 96
3, 57816, Note_off_c, 2, 48, 0
3, 58800, Note_on_c, 2, 51, 96
3, 58824, Note_off_c, 2, 51, 0
3, 58824, Note_on_c, 2, 53, 96
3, 58920, Note_off_c, 2, 53, 0
3, 58920, Note_on_c, 2, 44, 96
3, 59112, Note_off_c, 2, 44, 0
3, 59136, Note_on_c, 2, 49, 96
3, 59160, Note_off_c, 2, 49, 0
3, 59160, Note_on_c, 2, 51, 96
3, 59352, Note_off_c, 2, 51, 0
3, 59352, Note_on_c, 2, 49, 96
3, 59376, Note_off_c, 2, 49, 0
3, 59376, Note_on_c, 2, 44, 96
3, 59568, Note_off_c, 2, 44, 0
3, 59568, Note_on_c, 2, 43, 96
3, 59952, Note_off_c, 2, 43, 0
3, 59976, Note_on_c, 2, 48, 96
3, 60168, Note_off_c, 2, 48, 0
3, 60168, Note_on_c, 2, 55, 96
3, 60192, Note_off_c, 2, 55, 0
3, 60192, Note_on_c, 2, 43, 96
3, 60288, Note_off_c, 2, 43, 0
3, 60288, Note_on_c, 2, 51, 96
3, 60384, Note_off_c, 2, 51, 0
3, 60384, Note_on_c, 2, 53, 96
3, 60408, Note_off_c, 2, 53, 0
3, 60432, Note_on_c, 2, 48, 96
3, 60624, Note_off_c, 2, 48, 0
3, 60624, Note_on_c, 2, 55, 96
3, 60648, Note_off_c, 2, 55, 0
3, 60648, Note_on_c, 2, 43, 96
3, 60672, Note_off_c, 2, 43, 0
3, 60672, Note_on_c, 2, 48, 96
3, 60864, Note_off_c, 2, 48, 0
3, 60888, Note_on_c, 2, 48, 96
3, 60984, Note_off_c, 2, 48, 0
3, 60984, Note_on_c, 2, 43, 96
3, 61080, Note_off_c, 2, 43, 0
3, 61080, Note_on_c, 2, 51, 96
3, 61272, Note_off_c, 2, 51, 0
3, 61272, Note_on_c, 2, 49, 96
3, 61296, Note_off_c, 2, 49, 0
3, 61296, Note_on_c, 2, 46, 96
3, 61488, Note_off_c, 2, 46, 0
3, 61512, Note_on_c, 2, 43, 96
3, 61608, Note_off_c, 2, 43, 0
3, 61608, Note_on_c, 2, 46, 96
3, 61800, Note_off_c, 2, 46, 0
3, 61824, Note_on_c, 2, 55, 96
3, 61848, Note_off_c, 2, 55, 0
3, 61848, Note_on_c, 2, 53, 96
3, 61944, Note_off_c, 2, 53, 0
3, 61944, Note_on_c, 2, 48, 96
3, 62040, Note_off_c, 2, 48, 0
3, 62040, Note_on_c, 2, 43, 96
3, 62424, Note_off_c, 2, 43, 0
3, 63000, Note_on_c, 2, 48, 96
3, 63096, Note_off_c, 2, 48, 0
3, 63096, Note_on_c, 2, 49, 96
3, 63120, Note_off_c, 2, 49, 0
3, 63120, Note_on_c, 2, 48, 96
3, 63312, Note_off_c, 2, 48, 0
3, 63336, Note_on_c, 2, 48, 96
3, 63528, Note_off_c, 2, 48, 0
3, 63528, Note_on_c, 2, 55, 96
3, 63552, Note_off_c, 2, 55, 0
3, 63552, Note_on_c, 2, 49, 96
3, 63576, Note_off_c, 2, 49, 0
3, 63600, Note_on_c, 2, 55, 96
3, 63696, Note_off_c, 2, 55, 0
3, 63696, Note_on_c, 2, 44, 96
3, 63888, Note_off_c, 2, 44, 0
3, 63888, Note_on_c, 2, 43, 96
3, 63984, Note_off_c, 2, 43, 0
3, 63984, Note_on_c, 2, 49, 96
3, 64008, Note_off_c, 2, 49, 0
3, 64008, Note_on_c, 2, 46, 96
3, 64200, Note_off_c, 2, 46, 0
3, 64200, Note_on_c, 2, 48, 96
3, 64392, Note_off_c, 2, 48, 0
3, 64392, Note_on_c, 2, 46, 96
3, 64584, Note_off_c, 2, 46, 0
3, 64608, Note_on_c, 2, 53, 96
3, 64704, Note_off_c, 2, 53, 0
3, 64704, Note_on_c, 2, 51, 96
3, 64728, Note_off_c, 2, 51, 0
3, 64752, Note_on_c, 2, 48, 96
3, 64944, Note_off_c, 2, 48, 0
3, 64944, Note_on_c, 2, 55, 96
3, 64968, Note_off_c, 2, 55, 0
3, 64968, Note_on_c, 2, 49, 96
3, 64992, Note_off_c, 2, 49, 0
3, 65016, Note_on_c, 2, 44, 96
3, 65208, Note_off_c, 2, 44, 0
3, 65208, Note_on_c, 2, 43, 96
3, 65232, Note_off_c, 2, 43, 0
3, 65232, Note_on_c, 2, 51, 96
3, 65424, Note_off_c, 2, 51, 0
3, 65424, Note_on_c, 2, 49, 96
3, 65448, Note_off_c, 2, 49, 0
3, 65448, Note_on_c, 2, 51, 96
3, 65544, Note_off_c, 2, 51, 0
3, 65568, Note_on_c, 2, 53, 96
3, 65664, Note_off_c, 2, 53, 0
3, 65664, Note_on_c, 2, 51, 96
3, 65688, Note_off_c, 2, 51, 0
3, 65712, Note_on_c, 2, 48, 96
3, 65736, Note_off_c, 2, 48, 0
3, 65736, Note_on_c, 2, 43, 96
3, 65760, Note_off_c, 2, 43, 0
3, 65760, Note_on_c, 2, 53, 96
3, 65952, Note_off_c, 2, 53, 0
3, 65952, Note_on_c, 2, 51, 96
3, 66048, Note_off_c, 2, 51, 0
3, 66552, Note_on_c, 2, 51, 96
3, 66648, Note_off_c, 2, 51, 0
3, 66648, Note_on_c, 2, 53, 96
3, 66744, Note_off_c, 2, 53, 0
3, 66768, Note_on_c, 2, 48, 96
3, 66864, Note_off_c, 2, 48, 0
3, 66864, Note_on_c, 2, 53, 96
3, 66960, Note_off_c, 2, 53, 0
3, 66960, Note_on_c, 2, 51, 96
3, 67056, Note_off_c, 2, 51, 0
3, 67056, Note_on_c, 2, 53, 96
3, 67080, Note_off_c, 2, 53, 0
3, 67080, Note_on_c, 2, 49, 96
3, 67104, Note_off_c, 2, 49, 0
3, 67104, Note_on_c, 2, 44, 96
3, 67296, Note_off_c, 2, 44, 0
3, 67320, Note_on_c, 2, 43, 96
3, 67416, Note_off_c, 2, 43, 0
3, 67416, Note_on_c, 2, 51, 96
3, 67512, Note_off_c, 2, 51, 0
3, 67536, Note_on_c, 2, 48, 96
3, 67560, Note_off_c, 2, 48, 0
3, 67560, Note_on_c, 2, 49, 96
3, 67584, Note_off_c, 2, 49, 0
3, 67584, Note_on_c, 2, 43, 96
3, 67608, Note_off_c, 2, 43, 0
3, 67608, Note_on_c, 2, 48, 96
3, 67632, Note_off_c, 2, 48, 0
3, 67632, Note_on_c, 2, 48, 96
3, 67728, Note_off_c, 2, 48, 0
3, 67728, Note_on_c, 2, 43, 96
3, 68112, Note_off_c, 2, 43, 0
3, 68136, Note_on_c, 2, 44, 96
3, 68160, Note_off_c, 2, 44, 0
3, 68160, Note_on_c, 2, 48, 96
3, 68256, Note_off_c, 2, 48, 0
3, 68256, Note_on_c, 2, 43, 96
3, 68280, Note_off_c, 2, 43, 0
3, 68280, Note_on_c, 2, 46, 96
3, 68304, Note_off_c, 2, 46, 0
3, 68304, Note_on_c, 2, 46, 96
3, 68400, Note_off_c, 2, 46, 0
3, 68520, Note_on_c, 2, 53, 96
3, 68712, Note_off_c, 2, 53, 0
3, 68712, Note_on_c, 2, 43, 96
3, 68808, Note_off_c, 2, 43, 0
3, 68808, Note_on_c, 2, 48, 96
3, 69000, Note_off_c, 2, 48, 0
3, 69000, Note_on_c, 2, 55, 96
3, 69024, Note_off_c, 2, 55, 0
3, 69048, Note_on_c, 2, 55, 96
3, 69072, Note_off_c, 2, 55, 0
3, 69072, Note_on_c, 2, 53, 96
3, 69168, Note_off_c, 2, 53, 0
3, 69168, Note_on_c, 2, 43, 96
3, 69192, Note_off_c, 2, 43, 0
3, 69192, Note_on_c, 2, 44, 96
3, 69384, Note_off_c, 2, 44, 0
3, 69384, Note_on_c, 2, 46, 96
3, 69576, Note_off_c, 2, 46, 0
3, 69576, Note_on_c, 2, 49, 96
3, 69600, Note_off_c, 2, 49, 0
3, 69624, Note_on_c, 2, 51, 96
3, 69720, Note_off_c, 2, 51, 0
3, 69720, Note_on_c, 2, 53, 96
3, 69816, Note_off_c, 2, 53, 0
3, 69816, Note_on_c, 2, 48, 96
3, 70008, Note_off_c, 2, 48, 0
3, 70008, Note_on_c, 2, 49, 96
3, 70032, Note_off_c, 2, 49, 0
3, 70440, Note_on_c, 2, 46, 96
3, 70464, Note_off_c, 2, 46, 0
3, 70464, Note_on_c, 2, 49, 96
3, 70656, Note_off_c, 2, 49, 0
3, 70656, Note_on_c, 2, 44, 96
3, 70848, Note_off_c, 2, 44, 0
3, 70848, Note_on_c, 2, 46, 96
3, 71040, Note_off_c, 2, 46, 0
3, 71040, Note_on_c, 2, 49, 96
3, 71064, Note_off_c, 2, 49, 0
3, 71088, Note_on_c, 2, 48, 96
3, 71280, Note_off_c, 2, 48, 0
3, 71280, Note_on_c, 2, 55, 96
3, 71304, Note_off_c, 2, 55, 0
3, 71304, Note_on_c, 2, 49, 96
3, 71328, Note_off_c, 2, 49, 0
3, 71352, Note_on_c, 2, 46, 96
3, 71544, Note_off_c, 2, 46, 0
3, 71544, Note_on_c, 2, 53, 96
3, 71640, Note_off_c, 2, 53, 0
3, 71640, Note_on_c, 2, 51, 96
3, 71736, Note_off_c, 2, 51, 0
3, 71736, Note_on_c, 2, 46, 96
3, 71928, Note_off_c, 2, 46, 0
3, 71952, Note_on_c, 2, 53, 96
3, 72048, Note_off_c, 2, 53, 0
3, 72048, Note_on_c, 2, 51, 96
3, 72072, Note_off_c, 2, 51, 0
3, 72096, Note_on_c, 2, 44, 96
3, 72192, Note_off_c, 2, 44, 0
3, 72192, Note_on_c, 2, 53, 96
3, 72288, Note_off_c, 2, 53, 0
3, 72288, Note_on_c, 2, 43, 96
3, 72672, Note_off_c, 2, 43, 0
3, 72888, Note_on_c, 2, 51, 96
3, 72984, Note_off_c, 2, 51, 0
3, 72984, Note_on_c, 2, 53, 96
3, 73080, Note_off_c, 2, 53, 0
3, 73080, Note_on_c, 2, 44, 96
3, 73272, Note_off_c, 2, 44, 0
3, 73296, Note_on_c, 2, 55, 96
3, 73320, Note_off_c, 2, 55, 0
3, 73320, Note_on_c, 2, 43, 96
3, 73416, Note_off_c, 2, 43, 0
3, 73416, Note_on_c, 2, 46, 96
3, 73608, Note_off_c, 2, 46, 0
3, 73632, Note_on_c, 2, 43, 96
3, 73656, Note_off_c, 2, 43, 0
3, 73656, Note_on_c, 2, 46, 96
3, 73680, Note_off_c, 2, 46, 0
3, 73680, Note_on_c, 2, 46, 96
3, 73704, Note_off_c, 2, 46, 0
3, 73704, Note_on_c, 2, 49, 96
3, 73728, Note_off_c, 2, 49, 0
3, 73728, Note_on_c, 2, 55, 96
3, 73824, Note_off_c, 2, 55, 0
3, 73824, Note_on_c, 2, 48, 96
3, 74016, Note_off_c, 2, 48, 0
3, 74016, Note_on_c, 2, 49, 96
3, 74040, Note_off_c, 2, 49, 0
3, 74040, Note_on_c, 2, 48, 96
3, 74064, Note_off_c, 2, 48, 0
3, 74472, Note_on_c, 2, 44, 96
3, 74496, Note_off_c, 2, 44, 0
3, 74496, Note_on_c, 2, 44, 96
3, 74688, Note_off_c, 2, 44, 0
3, 74688, Note_on_c, 2, 49, 96
3, 74712, Note_off_c, 2, 49, 0
3, 74712, Note_on_c, 2, 48, 96
3, 74904, Note_off_c, 2, 48, 0
3, 74904, Note_on_c, 2, 55, 96
3, 74928, Note_off_c, 2, 55, 0
3, 74928, Note_on_c, 2, 44, 96
3, 75120, Note_off_c, 2, 44, 0
3, 75120, Note_on_c, 2, 49, 96
3, 75144, Note_off_c, 2, 49, 0
3, 75144, Note_on_c, 2, 51, 96
3, 75240, Note_off_c, 2, 51, 0
3, 75360, Note_on_c, 2, 53, 96
3, 75552, Note_off_c, 2, 53, 0
3, 75552, Note_on_c, 2, 55, 96
3, 75576, Note_off_c, 2, 55, 0
3, 75576, Note_on_c, 2, 53, 96
3, 75672, Note_off_c, 2, 53, 0
3, 75672, Note_on_c, 2, 49, 96
3, 75768, Note_off_c, 2, 49, 0
3, 75888, Note_on_c, 2, 48, 96
3, 76080, Note_off_c, 2, 48, 0
3, 76080, Note_on_c, 2, 43, 96
3, 76464, Note_off_c, 2, 43, 0
3, 76464, Note_on_c, 2, 44, 96
3, 76656, Note_off_c, 2, 44, 0
3, 76656, Note_on_c, 2, 43, 96
3, 76680, Note_off_c, 2, 43, 0
3, 76680, Note_on_c, 2, 51, 96
3, 76776, Note_off_c, 2, 51, 0
3, 76776, Note_on_c, 2, 48, 96
3, 76968, Note_off_c, 2, 48, 0
3, 77088, Note_on_c, 2, 55, 96
3, 77112, Note_off_c, 2, 55, 0
3, 77112, Note_on_c, 2, 49, 96
3, 77136, Note_off_c, 2, 49, 0
3, 77160, Note_on_c, 2, 46, 96
3, 77184, Note_off_c, 2, 46, 0
3, 77184, Note_on_c, 2, 43, 96
3, 77208, Note_off_c, 2, 43, 0
3, 77208, Note_on_c, 2, 48, 96
3, 77304, Note_off_c, 2, 48, 0
3, 77304, Note_on_c, 2, 48, 96
3, 77400, Note_off_c, 2, 48, 0
3, 77400, Note_on_c, 2, 46, 96
3, 77592, Note_off_c, 2, 46, 0
3, 77616, Note_on_c, 2, 51, 96
3, 77640, Note_off_c, 2, 51, 0
3, 77640, Note_on_c, 2, 44, 96
3, 77832, Note_off_c, 2, 44, 0
3, 77832, Note_on_c, 2, 49, 96
3, 77856, Note_off_c, 2, 49, 0
3, 77856, Note_on_c, 2, 49, 96
3, 77880, Note_off_c, 2, 49, 0
3, 77904, Note_on_c, 2, 48, 96
3, 78000, Note_off_c, 2, 48, 0
3, 78000, Note_on_c, 2, 43, 96
3, 78024, Note_off_c, 2, 43, 0
3, 78024, Note_on_c, 2, 43, 96
3, 78408, Note_off_c, 2, 43, 0
3, 78432, Note_on_c, 2, 48, 96
3, 78624, Note_off_c, 2, 48, 0
3, 78624, Note_on_c, 2, 55, 96
3, 78648, Note_off_c, 2, 55, 0
3, 78648, Note_on_c, 2, 49, 96
3, 78672, Note_off_c, 2, 49, 0
3, 79080, Note_on_c, 2, 44, 96
3, 79104, Note_off_c, 2, 44, 0
3, 79104, Note_on_c, 2, 53, 96
3, 79200, Note_off_c, 2, 53, 0
3, 79200, Note_on_c, 2, 49, 96
3, 79392, Note_off_c, 2, 49, 0
3, 79392, Note_on_c, 2, 51, 96
3, 79488, Note_off_c, 2, 51, 0
3, 79488, Note_on_c, 2, 48, 96
3, 79512, Note_off_c, 2, 48, 0
3, 79536, Note_on_c, 2, 53, 96
3, 79632, Note_off_c, 2, 53, 0
3, 79632, Note_on_c, 2, 44, 96
3, 79824, Note_off_c, 2, 44, 0
3, 79848, Note_on_c, 2, 44, 96
3, 79872, Note_off_c, 2, 44, 0
3, 79872, Note_on_c, 2, 49, 96
3, 80064, Note_off_c, 2, 49, 0
3, 80064, Note_on_c, 2, 43, 96
3, 80160, Note_off_c, 2, 43, 0
3, 80160, Note_on_c, 2, 48, 96
3, 80256, Note_off_c, 2, 48, 0
3, 80256, Note_on_c, 2, 48, 96
3, 80280, Note_off_c, 2, 48, 0
3, 80304, Note_on_c, 2, 48, 96
3, 80496, Note_off_c, 2, 48, 0
3, 80496, Note_on_c, 2, 55, 96
3, 80520, Note_off_c, 2, 55, 0
3, 80520, Note_on_c, 2, 49, 96
3, 80544, Note_off_c, 2, 49, 0
3, 80568, Note_on_c, 2, 44, 96
3, 80760, Note_off_c, 2, 44, 0
3, 80760, Note_on_c, 2, 53, 96
3, 80856, Note_off_c, 2, 53, 0
3, 80856, Note_on_c, 2, 53, 96
3, 80952, Note_off_c, 2, 53, 0
3, 80952, Note_on_c, 2, 51, 96
3, 80976, Note_off_c, 2, 51, 0
3, 81192, Note_on_c, 2, 51, 96
3, 81288, Note_off_c, 2, 51, 0
3, 81288, Note_on_c, 2, 53, 96
3, 81384, Note_off_c, 2, 53, 0
3, 81384, Note_on_c, 2, 44, 96
3, 81576, Note_off_c, 2, 44, 0
3, 81600, Note_on_c, 2, 55, 96
3, 81696, Note_off_c, 2, 55, 0
3, 81696, Note_on_c, 2, 43, 96
3, 81720, Note_off_c, 2, 43, 0
3, 81720, Note_on_c, 2, 48, 96
3, 81816, Note_off_c, 2, 48, 0
3, 81816, Note_on_c, 2, 49, 96
3, 81840, Note_off_c, 2, 49, 0
3, 81864, Note_on_c, 2, 44, 96
3, 82056, Note_off_c, 2, 44, 0
3, 82056, Note_on_c, 2, 49, 96
3, 82080, Note_off_c, 2, 49, 0
3, 82080, Note_on_c, 2, 48, 96
3, 82176, Note_off_c, 2, 48, 0
3, 82176, Note_on_c, 2, 43, 96
3, 82272, Note_off_c, 2, 43, 0
3, 82272, Note_on_c, 2, 53, 96
3, 82296, Note_off_c, 2, 53, 0
3, 82296, Note_on_c, 2, 43, 96
3, 82392, Note_off_c, 2, 43, 0
3, 82392, Note_on_c, 2, 53, 96
3, 82488, Note_off_c, 2, 53, 0
3, 82488, Note_on_c, 2, 49, 96
3, 82680, Note_off_c, 2, 49, 0
3, 82680, Note_on_c, 2, 46, 96
3, 82872, Note_off_c, 2, 46, 0
3, 83280, Note_on_c, 2, 48, 96
3, 83376, Note_off_c, 2, 48, 0
3, 83376, Note_on_c, 2, 49, 96
3, 83400, Note_off_c, 2, 49, 0
3, 83400, Note_on_c, 2, 48, 96
3, 83592, Note_off_c, 2, 48, 0
3, 83592, Note_on_c, 2, 46, 96
3, 83616, Note_off_c, 2, 46, 0
3, 83616, Note_on_c, 2, 55, 96
3, 83640, Note_off_c, 2, 55, 0
3, 83640, Note_on_c, 2, 49, 96
3, 83664, Note_off_c, 2, 49, 0
3, 83664, Note_on_c, 2, 44, 96
3, 83856, Note_off_c, 2, 44, 0
3, 83856, Note_on_c, 2, 43, 96
3, 84240, Note_off_c, 2, 43, 0
3, 84264, Note_on_c, 2, 46, 96
3, 84288, Note_off_c, 2, 46, 0
3, 84288, Note_on_c, 2, 43, 96
3, 84312, Note_off_c, 2, 43, 0
3, 84312, Note_on_c, 2, 48, 96
3, 84408, Note_off_c, 2, 48, 0
3, 84408, Note_on_c, 2, 48, 96
3, 84504, Note_off_c, 2, 48, 0
3, 84528, Note_on_c, 2, 48, 96
3, 84720, Note_off_c, 2, 48, 0
3, 84720, Note_on_c, 2, 55, 96
3, 84744, Note_off_c, 2, 55, 0
3, 84744, Note_on_c, 2, 43, 96
3, 84768, Note_off_c, 2, 43, 0
3, 84768, Note_on_c, 2, 48, 96
3, 84960, Note_off_c, 2, 48, 0
3, 84984, Note_on_c, 2, 51, 96
3, 85176, Note_off_c, 2, 51, 0
3, 85176, Note_on_c, 2, 43, 96
3, 85272, Note_off_c, 2, 43, 0
3, 85272, Note_on_c, 2, 44, 96
3, 85464, Note_off_c, 2, 44, 0
3, 85464, Note_on_c, 2, 53, 96
3, 85488, Note_off_c, 2, 53, 0
3, 85488, Note_on_c, 2, 43, 96
3, 85584, Note_off_c, 2, 43, 0
3, 85584, Note_on_c, 2, 51, 96
3, 85680, Note_off_c, 2, 51, 0
3, 85680, Note_on_c, 2, 43, 96
3, 85776, Note_off_c, 2, 43, 0
3, 85776, Note_on_c, 2, 48, 96
3, 85968, Note_off_c, 2, 48, 0
3, 85968, Note_on_c, 2, 43, 96
3, 86352, Note_off_c, 2, 43, 0
3, 86472, Note_on_c, 2, 48, 96
3, 86664, Note_off_c, 2, 48, 0
3, 86664, Note_on_c, 2, 55, 96
3, 86688, Note_off_c, 2, 55, 0
3, 86688, Note_on_c, 2, 43, 96
3, 86712, Note_off_c, 2, 43, 0
3, 86712, Note_on_c, 2, 48, 96
3, 86904, Note_off_c, 2, 48, 0
3, 86928, Note_on_c, 2, 53, 96
3, 87120, Note_off_c, 2, 53, 0
3, 87120, Note_on_c, 2, 43, 96
3, 87216, Note_off_c, 2, 43, 0
3, 87216, Note_on_c, 2, 46, 96
3, 87408, Note_off_c, 2, 46, 0
3, 87408, Note_on_c, 2, 55, 96
3, 87432, Note_off_c, 2, 55, 0
3, 87432, Note_on_c, 2, 49, 96
3, 87456, Note_off_c, 2, 49, 0
3, 87456, Note_on_c, 2, 46, 96
3, 87648, Note_off_c, 2, 46, 0
3, 88056, Note_on_c, 2, 44, 96
3, 88080, Note_off_c, 2, 44, 0
3, 88080, Note_on_c, 2, 49, 96
3, 88272, Note_off_c, 2, 49, 0
3, 88272, Note_on_c, 2, 48, 96
3, 88464, Note_off_c, 2, 48, 0
3, 88488, Note_on_c, 2, 43, 96
3, 88512, Note_off_c, 2, 43, 0
3, 88512, Note_on_c, 2, 46, 96
3, 88536, Note_off_c, 2, 46, 0
3, 88536, Note_on_c, 2, 48, 96
3, 88728, Note_off_c, 2, 48, 0
3, 88728, Note_on_c, 2, 46, 96
3, 88920, Note_off_c, 2, 46, 0
3, 88944, Note_on_c, 2, 51, 96
3, 89040, Note_off_c, 2, 51, 0
3, 89040, Note_on_c, 2, 53, 96
3, 89136, Note_off_c, 2, 53, 0
3, 89136, Note_on_c, 2, 48, 96
3, 89328, Note_off_c, 2, 48, 0
3, 90312, Note_on_c, 2, 51, 96
3, 90336, Note_off_c, 2, 51, 0
3, 90336, Note_on_c, 2, 53, 96
3, 90432, Note_off_c, 2, 53, 0
3, 90432, Note_on_c, 2, 44, 96
3, 90624, Note_off_c, 2, 44, 0
3, 90648, Note_on_c, 2, 49, 96
3, 90672, Note_off_c, 2, 49, 0
3, 90672, Note_on_c, 2, 51, 96
3, 90864, Note_off_c, 2, 51, 0
3, 90864, Note_on_c, 2, 49, 96
3, 90888, Note_off_c, 2, 49, 0
3, 90888, Note_on_c, 2, 44, 96
3, 91080, Note_off_c, 2, 44, 0
3, 91080, Note_on_c, 2, 43, 96
3, 91464, Note_off_c, 2, 43, 0
3, 91488, Note_on_c, 2, 48, 96
3, 91680, Note_off_c, 2, 48, 0
3, 91680, Note_on_c, 2, 55, 96
3, 91704, Note_off_c, 2, 55, 0
3, 91704, Note_on_c, 2, 43, 96
3, 91800, Note_off_c, 2, 43, 0
3, 91800, Note_on_c, 2, 51, 96
3, 91896, Note_off_c, 2, 51, 0
3, 91896, Note_on_c, 2, 53, 96
3, 91920, Note_off_c, 2, 53, 0
3, 91944, Note_on_c, 2, 48, 96
3, 92136, Note_off_c, 2, 48, 0
3, 92136, Note_on_c, 2, 55, 96
3, 92160, Note_off_c, 2, 55, 0
3, 92160, Note_on_c, 2, 43, 96
3, 92184, Note_off_c, 2, 43, 0
3, 92184, Note_on_c, 2, 48, 96
3, 92376, Note_off_c, 2, 48, 0
3, 92400, Note_on_c, 2, 48, 96
3, 92496, Note_off_c, 2, 48, 0
3, 92496, Note_on_c, 2, 43, 96
3, 92592, Note_off_c, 2, 43, 0
3, 92592, Note_on_c, 2, 51, 96
3, 92784, Note_off_c, 2, 51, 0
3, 92784, Note_on_c, 2, 49, 96
3, 92808, Note_off_c, 2, 49, 0
3, 92808, Note_on_c, 2, 46, 96
3, 93000, Note_off_c, 2, 46, 0
3, 93024, Note_on_c, 2, 43, 96
3, 93120, Note_off_c, 2, 43, 0
3, 93120, Note_on_c, 2, 46, 96
3, 93312, Note_off_c, 2, 46, 0
3, 93336, Note_on_c, 2, 55, 96
3, 93360, Note_off_c, 2, 55, 0
3, 93360, Note_on_c, 2, 53, 96
3, 93456, Note_off_c, 2, 53, 0
3, 93456, Note_on_c, 2, 48, 96
3, 93552, Note_off_c, 2, 48, 0
3, 93552, Note_on_c, 2, 43, 96
3, 93936, Note_off_c, 2, 43, 0
3, 93936, End_track
0, 0, End_of_file
